<svg width="477" height="241" viewBox="0 0 477 241" fill="none" xmlns="http://www.w3.org/2000/svg">
<rect x="0.562499" y="0.562499" width="472.501" height="239.625" fill="#FFC18A" stroke="black" stroke-width="1.125"/>
<line x1="4.50005" y1="1.125" x2="4.50006" y2="239.625" stroke="#56160D" stroke-width="8.99999"/>
<line x1="24.2761" y1="1.125" x2="24.2761" y2="239.625" stroke="#56160D" stroke-width="10.125"/>
<line x1="44.6062" y1="1.125" x2="44.6062" y2="239.625" stroke="#56160D" stroke-width="10.125"/>
<line x1="64.9363" y1="1.125" x2="64.9363" y2="239.625" stroke="#56160D" stroke-width="10.125"/>
<line x1="85.2663" y1="1.125" x2="85.2664" y2="239.625" stroke="#56160D" stroke-width="10.125"/>
<line x1="105.598" y1="1.125" x2="105.598" y2="239.625" stroke="#56160D" stroke-width="10.125"/>
<line x1="125.928" y1="1.125" x2="125.928" y2="239.625" stroke="#56160D" stroke-width="10.125"/>
<line x1="146.258" y1="1.125" x2="146.258" y2="239.625" stroke="#56160D" stroke-width="10.125"/>
<line x1="166.588" y1="1.125" x2="166.588" y2="239.625" stroke="#56160D" stroke-width="10.125"/>
<line x1="186.918" y1="1.125" x2="186.918" y2="239.625" stroke="#56160D" stroke-width="10.125"/>
<line x1="207.248" y1="1.125" x2="207.248" y2="239.625" stroke="#56160D" stroke-width="10.125"/>
<line x1="227.579" y1="1.125" x2="227.579" y2="239.625" stroke="#56160D" stroke-width="10.125"/>
<line x1="247.46" y1="1.125" x2="247.46" y2="239.625" stroke="#56160D" stroke-width="10.125"/>
<line x1="267.79" y1="1.125" x2="267.79" y2="239.625" stroke="#56160D" stroke-width="10.125"/>
<line x1="288.121" y1="1.125" x2="288.121" y2="239.625" stroke="#56160D" stroke-width="10.125"/>
<line x1="308.451" y1="1.125" x2="308.451" y2="239.625" stroke="#56160D" stroke-width="10.125"/>
<line x1="328.781" y1="1.125" x2="328.781" y2="239.625" stroke="#56160D" stroke-width="10.125"/>
<line x1="349.112" y1="1.125" x2="349.112" y2="239.625" stroke="#56160D" stroke-width="10.125"/>
<line x1="369.442" y1="1.125" x2="369.442" y2="239.625" stroke="#56160D" stroke-width="10.125"/>
<line x1="389.772" y1="1.125" x2="389.772" y2="239.625" stroke="#56160D" stroke-width="10.125"/>
<line x1="410.102" y1="1.125" x2="410.102" y2="239.625" stroke="#56160D" stroke-width="10.125"/>
<line x1="430.432" y1="1.125" x2="430.432" y2="239.625" stroke="#56160D" stroke-width="10.125"/>
<line x1="450.764" y1="1.125" x2="450.764" y2="239.625" stroke="#56160D" stroke-width="10.125"/>
<line x1="471.094" y1="1.125" x2="471.094" y2="239.625" stroke="#56160D" stroke-width="10.125"/>
</svg>
