<svg width="213" height="218" viewBox="0 0 213 218" fill="none" xmlns="http://www.w3.org/2000/svg">
<path fill-rule="evenodd" clip-rule="evenodd" d="M41.2266 66.5278C16.4765 81.9843 0 109.544 0 140.969C0 174.048 18.2564 202.844 45.2017 217.749H129.234C156.179 202.844 174.436 174.048 174.436 140.969C174.436 109.544 157.959 81.9843 133.209 66.5278H41.2266Z" fill="#FFC18A"/>
<path fill-rule="evenodd" clip-rule="evenodd" d="M0 147.648C1.86654 177.891 19.5706 203.914 45.0355 217.75H129.06C154.525 203.914 172.229 177.891 174.095 147.648H0Z" fill="#56160D"/>
<rect x="41.4282" y="28.1602" width="91.5788" height="38.368" fill="#A33C01"/>
<path d="M41.9733 28.7086L18.4431 4.57562C17.0533 3.15019 18.0632 0.754883 20.0541 0.754883H25.6757C34.6279 0.754883 43.4844 2.59703 51.6941 6.16674L52.4271 6.48545C57.0711 8.50474 61.4643 11.0578 65.5179 14.0931L85.037 28.7086H41.9733Z" fill="#A33C01"/>
<path d="M145.468 34.586L133.006 28.1602V44.0554L138.817 47.4197C146.903 52.1011 154.42 57.8251 161.094 64.3641C168.462 71.5827 174.839 79.8475 179.936 88.8154C183.527 95.1353 186.488 101.793 188.776 108.693L189.234 110.075C192.078 118.655 193.988 127.518 194.929 136.508L195.693 143.811H212.047L211.478 136.565C210.769 127.538 209.061 118.618 206.384 109.969C203.987 102.221 200.826 94.7306 196.947 87.6082L194.695 83.4728C191.731 78.0304 188.361 72.819 184.614 67.8826L183.772 66.7729C177.575 58.6084 170.299 51.323 162.142 45.1162C156.901 41.1279 151.321 37.6045 145.468 34.586Z" fill="#A33C01"/>
</svg>
