<svg width="216" height="316" viewBox="0 0 216 316" fill="none" xmlns="http://www.w3.org/2000/svg">
<path d="M209.047 130.272H6.95373V265.741L18.6882 295.845L0 315.198H216L199.051 292.082L209.047 265.741V130.272Z" fill="#FFC18A"/>
<rect x="0.43457" y="67.376" width="215.566" height="56.9829" fill="#FFC18A"/>
<rect x="0.43457" y="124.359" width="215.566" height="6.4509" fill="#56160D"/>
<path d="M16.9494 67.377C16.9036 58.4003 25.0741 53.1795 29.556 44.8507C34.038 36.522 41.2194 33.8273 49.5468 27.4144C57.8742 21.0016 63.8477 12.4094 74.7528 8.88878C85.6579 5.36812 94.6296 0.810352 106.452 0.717897C118.275 0.625442 129.646 1.95223 140.586 5.30205C151.526 8.65186 158.064 16.2403 166.456 22.5224C174.848 28.8045 182.317 36.6096 186.884 44.8676C191.451 53.1256 198.569 58.3993 198.615 67.376L106.457 68.7246L16.9494 67.377Z" fill="#56160D"/>
<ellipse cx="27.6606" cy="38.9625" rx="27.6606" ry="38.9625" transform="matrix(0.637706 0.77028 -0.619652 0.784877 110.077 156.364)" fill="#2A0C01"/>
<path d="M122.267 186.55C121.094 188.212 119.788 189.691 118.472 191.181C118.051 191.538 114.282 198.937 110.1 200.499C104.662 202.529 97.8855 207.668 92.6809 215.864C88.9377 221.857 85.8308 225.398 84.965 230.054C86.8386 227.504 88.6886 225.337 90.7466 223.444C92.0238 222.364 93.3814 221.358 94.8009 220.45C97.4648 218.856 99.7495 218.103 102.423 216.497C104.098 215.441 105.971 213.781 107.679 212.332C110.764 209.49 113.532 205.808 116.073 201.876C119.466 196.327 121.505 190.899 122.267 186.55Z" fill="#FFC18A"/>
</svg>
