<svg width="232" height="233" viewBox="0 0 232 233" fill="none" xmlns="http://www.w3.org/2000/svg">
<path d="M1.01758 1.15246C1.01758 1.15246 -3.12936 114.839 115.947 116.624C115.947 -7.18056 1.01758 1.15246 1.01758 1.15246Z" fill="#A33C01"/>
<path d="M1.01758 231.961C1.01758 231.961 -3.12936 118.275 115.947 116.489C115.947 240.294 1.01758 231.961 1.01758 231.961Z" fill="#A33C01"/>
<path d="M230.877 1.1173C230.877 1.1173 235.024 114.803 115.947 116.589C115.947 -7.21572 230.877 1.1173 230.877 1.1173Z" fill="#A33C01"/>
<path d="M230.877 231.996C230.877 231.996 235.024 118.31 115.947 116.524C115.947 240.329 230.877 231.996 230.877 231.996Z" fill="#A33C01"/>
<path d="M2.86414 2.87256L229.031 230.731" stroke="#56160D" stroke-width="4.49999" stroke-linecap="round"/>
<path d="M229.03 2.87305L2.24162 230.107" stroke="#56160D" stroke-width="4.49999" stroke-linecap="round"/>
</svg>
