<svg width="216" height="316" viewBox="0 0 216 316" fill="none" xmlns="http://www.w3.org/2000/svg">
<path d="M209.047 130.396H6.95373V265.864L18.6882 295.969L0 315.321H216L199.051 292.206L209.047 265.864V130.396Z" fill="#FFC18A"/>
<rect x="0.43457" y="67.4995" width="215.566" height="56.9829" fill="#FFC18A"/>
<rect x="0.43457" y="124.482" width="215.566" height="6.4509" fill="#56160D"/>
<path d="M16.9494 67.5005C16.9036 58.5238 25.0741 53.3031 29.556 44.9743C34.038 36.6455 41.2194 33.9508 49.5468 27.538C57.8742 21.1251 63.8477 12.533 74.7528 9.01231C85.6579 5.49166 94.6296 0.933888 106.452 0.841432C118.275 0.748977 129.646 2.07576 140.586 5.42558C151.526 8.7754 158.064 16.3638 166.456 22.6459C174.848 28.9281 182.317 36.7332 186.884 44.9912C191.451 53.2492 198.569 58.5229 198.615 67.4996L106.457 68.8482L16.9494 67.5005Z" fill="#2A0C01"/>
<ellipse cx="27.6606" cy="38.9625" rx="27.6606" ry="38.9625" transform="matrix(0.637706 0.77028 -0.619652 0.784877 110.077 156.488)" fill="#2A0C01"/>
<path d="M122.267 186.674C121.094 188.336 119.788 189.814 118.472 191.304C118.051 191.662 114.282 199.06 110.1 200.623C104.662 202.653 97.8855 207.792 92.6809 215.988C88.9377 221.98 85.8308 225.521 84.965 230.177C86.8386 227.628 88.6886 225.461 90.7466 223.568C92.0238 222.488 93.3814 221.482 94.8009 220.574C97.4648 218.979 99.7495 218.226 102.423 216.62C104.098 215.565 105.971 213.905 107.679 212.455C110.764 209.614 113.532 205.932 116.073 202C119.466 196.451 121.505 191.022 122.267 186.674Z" fill="#FFC18A"/>
</svg>
