<svg width="284" height="285" viewBox="0 0 284 285" fill="none" xmlns="http://www.w3.org/2000/svg">
<rect x="21.9375" y="22.811" width="239.625" height="240.75" fill="#56160D" stroke="black" stroke-width="1.125"/>
<path d="M141.715 21.1586C169.738 72.4417 211.897 114.6 263.18 142.624C211.897 170.647 169.738 212.805 141.715 264.088C113.692 212.805 71.5331 170.647 20.25 142.624C71.5022 114.631 113.692 72.4417 141.715 21.1586Z" fill="#56160D"/>
<path d="M24.3435 142.919C24.3105 172.952 35.6944 202.957 58.5558 225.818C81.4171 248.679 111.422 260.063 141.455 260.03C140.276 220.585 63.7884 144.097 24.3435 142.919Z" fill="#A33C01"/>
<path d="M142.047 25.2169C112.013 25.3352 81.9509 36.8704 58.974 59.8472C35.9972 82.8241 24.462 112.886 24.3437 142.92C63.7951 141.543 140.669 64.6683 142.047 25.2169Z" fill="#FFC18A"/>
<path d="M259.158 142.329C259.191 112.295 247.807 82.2907 224.945 59.4293C202.084 36.5679 172.079 25.184 142.046 25.217C143.225 64.662 219.713 141.15 259.158 142.329Z" fill="#A33C01"/>
<path d="M141.455 260.03C171.488 259.912 201.55 248.377 224.527 225.4C247.504 202.423 259.039 172.361 259.157 142.327C219.706 143.705 142.832 220.579 141.455 260.03Z" fill="#FFC18A"/>
<path d="M141.188 93.6859C152.479 114.348 169.464 131.333 190.126 142.624C169.464 153.914 152.479 170.899 141.188 191.561C129.898 170.899 112.912 153.914 92.2505 142.624C112.9 131.346 129.898 114.348 141.188 93.6859Z" fill="#A33C01"/>
</svg>
