<svg width="242" height="124" viewBox="0 0 242 124" fill="none" xmlns="http://www.w3.org/2000/svg">
<rect x="1.18603" y="0.562499" width="239.625" height="122.625" fill="#A33C01" stroke="black" stroke-width="1.125"/>
<rect x="90.6235" y="1.125" width="63.0001" height="52.8751" fill="#FFC18A"/>
<path d="M143.467 1.12991C143.483 2.0941 143.516 3.03668 143.516 4.03878C143.516 19.4983 141.525 30.9276 137.538 38.3269C133.551 45.7262 123.128 49.4313 117.708 49.4313C111.84 49.4313 100.964 45.6234 97.0915 38.0019C93.214 30.3805 91.278 19.1732 91.278 4.36913C91.278 3.25327 91.3109 2.20243 91.3327 1.12991L35.5522 1.1299C35.5303 2.31618 35.4974 3.49165 35.4974 4.69418C35.4974 36.599 43.1923 60.8553 58.5821 77.4631C73.9719 94.0709 93.5674 102.375 117.374 102.375C127.557 102.375 137.303 100.647 146.606 97.1965C155.903 93.7406 164.654 88.3454 172.846 81.0003C181.039 73.6551 187.569 63.3795 192.442 50.1626C197.315 36.9511 199.748 21.5783 199.748 4.03336C199.748 3.04751 199.715 2.09409 199.705 1.12449L143.467 1.12449L143.467 1.12991Z" fill="#56160D"/>
</svg>
