<svg width="432" height="444" viewBox="0 0 432 444" fill="none" xmlns="http://www.w3.org/2000/svg">
<ellipse cx="216.219" cy="363.618" rx="56.0977" ry="79.6587" fill="#2A0C01"/>
<path d="M218.761 304.576C218.987 308.682 218.761 312.756 218.534 316.862C218.308 318.017 221.682 333.951 216.881 342.77C210.639 354.235 206.211 372.001 208.272 391.312C209.88 405.331 209.373 415.056 213.948 422.658C213.721 416.242 213.948 410.372 214.865 404.534C215.556 401.037 216.473 397.509 217.617 394.012C219.904 387.595 222.656 382.912 224.943 376.465C226.313 372.36 227.231 367.129 228.148 362.446C229.518 353.688 229.292 344.322 228.374 334.986C226.766 322.123 223.109 311.601 218.761 304.576Z" fill="#56160D"/>
<ellipse cx="79.4717" cy="227.952" rx="56.2297" ry="79.4717" transform="rotate(-90 79.4717 227.952)" fill="#56160D"/>
<path d="M20.5688 225.405C24.6646 225.179 28.7299 225.405 32.8256 225.632C33.9785 225.859 49.875 222.477 58.6732 227.29C70.1109 233.547 87.8357 237.984 107.101 235.919C121.087 234.307 130.789 234.815 138.374 230.23C131.972 230.456 126.117 230.23 120.292 229.31C116.803 228.618 113.284 227.698 109.795 226.552C103.393 224.259 98.7211 221.501 92.2893 219.208C88.1936 217.835 82.9753 216.915 78.3032 215.996C69.5657 214.623 60.2214 214.85 50.9074 215.769C38.0742 217.381 27.5771 221.047 20.5688 225.405Z" fill="#A33C01"/>
<ellipse cx="351.567" cy="227.953" rx="56.2297" ry="79.4717" transform="rotate(90 351.567 227.953)" fill="#FFC18A"/>
<path d="M410.47 230.499C406.375 230.726 402.309 230.499 398.213 230.272C397.061 230.046 381.164 233.427 372.366 228.615C360.928 222.358 343.203 217.92 323.938 219.986C309.952 221.598 300.25 221.09 292.665 225.675C299.067 225.448 304.922 225.675 310.747 226.595C314.236 227.287 317.755 228.207 321.244 229.353C327.646 231.646 332.318 234.404 338.75 236.697C342.845 238.07 348.064 238.989 352.736 239.909C361.473 241.282 370.818 241.055 380.132 240.136C392.965 238.524 403.462 234.858 410.47 230.499Z" fill="#2A0C01"/>
<ellipse cx="215.1" cy="79.6587" rx="56.0977" ry="79.6587" fill="#A33C01"/>
<path d="M217.641 20.6167C217.867 24.722 217.641 28.797 217.414 32.9023C217.188 34.0579 220.562 49.9918 215.761 58.8107C209.519 70.2753 205.091 88.0418 207.152 107.352C208.761 121.371 208.254 131.096 212.828 138.699C212.602 132.282 212.828 126.413 213.745 120.574C214.436 117.077 215.354 113.55 216.497 110.052C218.784 103.636 221.536 98.9528 223.824 92.5059C225.194 88.4005 226.111 83.17 227.028 78.4869C228.398 69.7288 228.172 60.3625 227.255 51.0267C225.646 38.1633 221.989 27.6414 217.641 20.6167Z" fill="#FFC18A"/>
</svg>
