<svg width="219" height="219" viewBox="0 0 219 219" fill="none" xmlns="http://www.w3.org/2000/svg">
<path d="M65.1777 33.2124C47.572 41.4913 40.8623 48.2007 32.5887 65.8012C24.3099 48.1955 17.6005 41.4861 0 33.2124C17.6057 24.9336 24.3151 18.224 32.5887 0.623535C40.8676 18.2293 47.5772 24.9388 65.1777 33.2124Z" fill="#FFC18A"/>
<path d="M141.604 33.2124C123.998 41.4913 117.289 48.2007 109.015 65.8012C100.736 48.1955 94.0267 41.4861 76.4263 33.2124C94.032 24.9336 100.741 18.224 109.015 0.623535C117.294 18.2293 124.003 24.9388 141.604 33.2124Z" fill="#FFC18A"/>
<path d="M218.03 33.2124C200.424 41.4913 193.715 48.2007 185.441 65.8012C177.162 48.1955 170.453 41.4861 152.853 33.2124C170.458 24.9336 177.168 18.224 185.441 0.623535C193.72 18.2293 200.43 24.9388 218.03 33.2124Z" fill="#FFC18A"/>
<path d="M218.03 109.639C200.424 117.918 193.715 124.627 185.441 142.227C177.162 124.622 170.453 117.912 152.853 109.639C170.458 101.36 177.168 94.6503 185.441 77.0498C193.72 94.6556 200.43 101.365 218.03 109.639Z" fill="#FFC18A"/>
<path d="M218.03 186.065C200.424 194.344 193.715 201.053 185.441 218.654C177.162 201.048 170.453 194.339 152.853 186.065C170.458 177.786 177.168 171.077 185.441 153.476C193.72 171.082 200.43 177.791 218.03 186.065Z" fill="#FFC18A"/>
<path d="M141.604 109.639C123.998 117.918 117.289 124.627 109.015 142.227C100.736 124.622 94.0267 117.912 76.4263 109.639C94.032 101.36 100.741 94.6503 109.015 77.0498C117.294 94.6556 124.003 101.365 141.604 109.639Z" fill="#FFC18A"/>
<path d="M141.604 186.065C123.998 194.344 117.289 201.054 109.015 218.654C100.736 201.048 94.0267 194.339 76.4263 186.065C94.032 177.787 100.741 171.077 109.015 153.477C117.294 171.082 124.003 177.792 141.604 186.065Z" fill="#FFC18A"/>
<path d="M65.1777 109.639C47.572 117.918 40.8623 124.627 32.5887 142.227C24.3099 124.622 17.6005 117.912 0 109.639C17.6057 101.36 24.3151 94.6503 32.5887 77.0498C40.8676 94.6556 47.5772 101.365 65.1777 109.639Z" fill="#FFC18A"/>
<path d="M65.1777 186.065C47.572 194.344 40.8623 201.054 32.5887 218.654C24.3099 201.048 17.6005 194.339 0 186.065C17.6057 177.787 24.3151 171.077 32.5887 153.477C40.8676 171.082 47.5772 177.792 65.1777 186.065Z" fill="#FFC18A"/>
</svg>
