<svg width="191" height="214" viewBox="0 0 191 214" fill="none" xmlns="http://www.w3.org/2000/svg">
<path d="M158.588 100.555C160.452 100.555 161.968 102.068 161.918 103.931C161.227 129.264 152.787 153.382 138.244 171.365C123.057 190.145 102.459 200.695 80.9817 200.695C59.5041 200.695 38.906 190.145 23.719 171.365C9.17656 153.382 0.736233 129.264 0.0459651 103.931C-0.00480387 102.068 1.51104 100.556 3.37499 100.556L80.9817 100.555H158.588Z" fill="#56160D"/>
<rect x="28.0322" y="200.694" width="102.785" height="12.5176" rx="3.37499" fill="#56160D"/>
<path d="M133.817 173.361C133.136 175.062 133.927 177.084 135.64 177.708C143.459 180.556 151.842 180.681 159.331 177.997C167.807 174.96 174.442 168.575 177.777 160.246C181.112 151.917 180.874 142.327 177.116 133.586C173.794 125.862 167.965 119.359 160.684 115.167C159.089 114.249 157.182 115.013 156.501 116.714V116.714C155.82 118.415 156.625 120.406 158.203 121.359C163.792 124.735 168.264 129.824 170.847 135.832C173.869 142.859 174.06 150.568 171.379 157.263C168.698 163.958 163.365 169.091 156.552 171.532C150.726 173.62 144.227 173.593 138.118 171.515C136.394 170.928 134.498 171.66 133.817 173.361V173.361Z" fill="#56160D"/>
</svg>
