<svg width="481" height="241" viewBox="0 0 481 241" fill="none" xmlns="http://www.w3.org/2000/svg">
<rect x="0.561523" y="124.562" width="479.251" height="115.875" fill="#FFC18A" stroke="black" stroke-width="1.125"/>
<rect x="240.186" y="0.562499" width="239.625" height="122.625" fill="#56160D" stroke="black" stroke-width="1.125"/>
<rect x="0.561523" y="0.562499" width="238.5" height="122.625" fill="#2A0C01" stroke="black" stroke-width="1.125"/>
<path d="M93.6819 69.5683L93.6819 54.6449L224.999 51.7437L224.999 73.2998L93.6819 69.5683Z" fill="#FFC18A"/>
<path d="M53.4722 32.6747C71.101 32.6747 92.0246 44.8929 92.0246 62.5217C92.0246 80.1504 71.101 91.125 53.4722 91.125C35.8435 91.125 15.749 80.1504 15.749 62.5217C15.749 44.8929 35.8435 32.6747 53.4722 32.6747Z" fill="#FFC18A"/>
<path d="M50.2732 82.834V82.834C46.7632 82.3268 43.2728 81.4908 39.9159 80.3467V80.3467L39.7233 80.2767C36.8264 79.2232 34.0938 77.7637 31.6073 75.9417V75.9417L31.2768 75.7074C28.7682 73.9289 26.4284 71.635 24.5897 69.1701V69.1701C24.5064 69.0585 24.5352 69.0988 24.4525 68.9868C24.0267 68.4107 22.646 66.4776 22.3818 65.2887" stroke="#2A0C01" stroke-width="3.37499" stroke-linecap="round"/>
</svg>
