<svg width="237" height="239" viewBox="0 0 237 239" fill="none" xmlns="http://www.w3.org/2000/svg">
<path d="M225.016 236.679C228.433 235.758 231.289 233.278 233.067 229.695C235.789 224.203 235.412 217.604 234.16 213.266C232.163 206.369 227.555 201.412 223.762 197.855C220.035 194.366 216.058 191.276 212.204 188.284C207.92 184.961 203.831 181.782 200.326 178.274C200.621 178.257 200.921 178.247 201.242 178.237C204.7 178.125 208.504 178.356 211.274 178.511C212.634 178.592 213.712 178.653 214.614 178.675C219.04 179.885 223.835 179.171 227.489 176.668C230.533 174.588 232.785 171.504 234.079 167.942C234.263 167.6 234.435 167.243 234.601 166.886C236.406 162.877 237.435 156.271 232.12 147.565C229.58 143.405 225.818 139.056 220.627 134.265C213.328 127.531 205.109 121.766 201.363 119.245C201.428 119.247 201.487 119.248 201.553 119.241C205.011 119.129 208.815 119.359 211.585 119.515C213.141 119.606 214.33 119.677 215.304 119.685C219.619 120.754 224.245 120.014 227.801 117.583C230.76 115.561 232.965 112.601 234.277 109.164C234.502 108.75 234.72 108.327 234.912 107.897C236.717 103.888 237.746 97.2825 232.431 88.5764C229.891 84.4161 226.129 80.0671 220.937 75.2763C213.554 68.4675 205.231 62.6419 201.55 60.1664C201.655 60.1681 201.76 60.1551 201.864 60.1568C205.323 60.0443 209.126 60.275 211.897 60.4303C214.171 60.5627 215.674 60.6532 216.844 60.5768C225.156 60.0366 232.2 55.5331 235.223 48.8055C237.029 44.7967 238.057 38.1909 232.743 29.4847C230.202 25.3245 226.44 20.9754 221.249 16.1846C212.929 8.51619 203.412 2.08381 200.696 0.299519L193.061 15.1018C195.133 16.4645 202.435 21.3777 209.345 27.3859C218.748 35.5638 220.823 40.0029 221.273 41.3612C220.531 42.142 218.622 43.2417 215.876 43.4172C215.425 43.4319 213.85 43.3402 212.582 43.2682C208.713 43.0364 203.42 42.7226 198.496 43.1344C193.146 43.5833 185.719 44.9896 182.937 52.0662C182.327 53.6128 182.018 55.1936 182.01 56.8014C181.987 61.0155 184.004 65.4315 188.052 70.0055C192.971 75.5701 198.681 80.0022 204.201 84.2844C207.932 87.1792 211.454 89.9164 214.641 92.9051C215.806 93.996 219.357 97.3284 220.237 100.346C220.288 100.515 220.326 100.729 220.351 100.949C219.393 101.631 217.742 102.353 215.558 102.494C215.107 102.509 213.532 102.417 212.264 102.345C208.396 102.113 203.102 101.8 198.178 102.211C192.828 102.66 185.401 104.067 182.619 111.143C182.009 112.69 181.7 114.271 181.692 115.878C181.669 120.092 183.686 124.508 187.734 129.082C192.653 134.647 198.363 139.079 203.883 143.361C207.614 146.256 211.136 148.993 214.323 151.982C215.487 153.073 219.039 156.405 219.919 159.423C219.964 159.57 219.996 159.754 220.021 159.945C219.063 160.627 217.418 161.342 215.24 161.483C214.789 161.498 213.214 161.406 211.947 161.334C208.078 161.102 202.785 160.788 197.86 161.2C192.511 161.649 185.084 163.055 182.301 170.132C181.692 171.679 181.383 173.259 181.374 174.867C181.352 179.081 183.368 183.497 187.417 188.071C192.336 193.636 198.045 198.068 203.566 202.35C207.296 205.245 210.818 207.982 214.006 210.971C215.17 212.062 218.722 215.394 219.601 218.411C219.755 218.95 219.811 219.604 219.801 220.155C215.322 220.441 206.094 218.772 199.058 216.777L195.434 233.429C198.808 234.387 216.08 239.037 224.996 236.634L225.016 236.679Z" fill="#FFC18A"/>
<path d="M164.666 237.583C168.083 236.662 170.94 234.183 172.717 230.6C175.44 225.108 175.063 218.509 173.811 214.171C171.814 207.274 167.205 202.316 163.413 198.76C159.686 195.27 155.708 192.181 151.854 189.188C147.57 185.866 143.482 182.687 139.977 179.179C140.271 179.161 140.572 179.152 140.892 179.142C144.351 179.03 148.154 179.26 150.925 179.416C152.284 179.497 153.363 179.558 154.265 179.58C158.69 180.79 163.486 180.075 167.14 177.572C170.184 175.493 172.436 172.409 173.729 168.847C173.914 168.505 174.086 168.148 174.251 167.791C176.057 163.782 177.085 157.176 171.771 148.47C169.23 144.31 165.468 139.961 160.277 135.17C152.978 128.436 144.759 122.671 141.014 120.15C141.079 120.151 141.138 120.152 141.203 120.146C144.662 120.033 148.465 120.264 151.236 120.419C152.791 120.511 153.981 120.582 154.955 120.59C159.27 121.659 163.896 120.919 167.451 118.488C170.41 116.466 172.616 113.506 173.928 110.069C174.152 109.654 174.37 109.232 174.562 108.802C176.368 104.793 177.396 98.1873 172.082 89.4811C169.541 85.3209 165.779 80.9719 160.588 76.1811C153.205 69.3722 144.881 63.5467 141.201 61.0712C141.306 61.0729 141.41 61.0599 141.515 61.0616C144.973 60.949 148.777 61.1798 151.548 61.3351C153.822 61.4675 155.325 61.558 156.495 61.4816C164.806 60.9414 171.851 56.4378 174.874 49.7103C176.679 45.7015 177.708 39.0957 172.393 30.3895C169.853 26.2292 166.091 21.8802 160.9 17.0894C152.579 9.42098 143.063 2.9886 140.346 1.2043L132.712 16.0066C134.783 17.3692 142.085 22.2825 148.996 28.2907C158.399 36.4686 160.474 40.9077 160.924 42.266C160.181 43.0468 158.273 44.1465 155.527 44.322C155.075 44.3367 153.5 44.245 152.233 44.173C148.364 43.9411 143.071 43.6274 138.146 44.0392C132.797 44.4881 125.37 45.8944 122.587 52.971C121.978 54.5176 121.669 56.0984 121.66 57.7062C121.638 61.9202 123.654 66.3363 127.703 70.9103C132.622 76.4749 138.331 80.907 143.852 85.1892C147.582 88.0839 151.104 90.8211 154.292 93.8099C155.456 94.9008 159.008 98.2332 159.887 101.25C159.939 101.42 159.977 101.634 160.002 101.854C159.044 102.536 157.393 103.258 155.209 103.399C154.758 103.414 153.183 103.322 151.915 103.25C148.046 103.018 142.753 102.704 137.829 103.116C132.479 103.565 125.052 104.971 122.269 112.048C121.66 113.595 121.351 115.175 121.342 116.783C121.32 120.997 123.336 125.413 127.385 129.987C132.304 135.552 138.013 139.984 143.534 144.266C147.264 147.161 150.786 149.898 153.974 152.887C155.138 153.978 158.69 157.31 159.569 160.327C159.614 160.475 159.646 160.659 159.671 160.85C158.713 161.532 157.069 162.247 154.891 162.388C154.44 162.402 152.865 162.311 151.597 162.239C147.729 162.007 142.435 161.693 137.511 162.105C132.161 162.554 124.735 163.96 121.952 171.037C121.342 172.583 121.033 174.164 121.025 175.772C121.003 179.986 123.019 184.402 127.067 188.976C131.986 194.541 137.696 198.973 143.217 203.255C146.947 206.15 150.469 208.887 153.656 211.876C154.821 212.966 158.372 216.299 159.252 219.316C159.406 219.855 159.461 220.509 159.452 221.059C154.973 221.346 145.745 219.676 138.708 217.682L135.084 234.334C138.459 235.292 155.731 239.942 164.647 237.539L164.666 237.583Z" fill="#FFC18A"/>
<path d="M104.317 237.583C107.734 236.662 110.591 234.183 112.368 230.6C115.09 225.108 114.713 218.509 113.461 214.171C111.465 207.274 106.856 202.316 103.064 198.76C99.3365 195.27 95.3589 192.181 91.5048 189.188C87.221 185.866 83.1326 182.687 79.6277 179.179C79.9219 179.161 80.2226 179.152 80.543 179.142C84.0016 179.03 87.8049 179.26 90.5758 179.416C91.935 179.497 93.0132 179.558 93.9152 179.58C98.3408 180.79 103.136 180.075 106.791 177.572C109.835 175.493 112.086 172.409 113.38 168.847C113.565 168.505 113.737 168.148 113.902 167.791C115.708 163.782 116.736 157.176 111.421 148.47C108.881 144.31 105.119 139.961 99.9278 135.17C92.6289 128.436 84.4098 122.671 80.6643 120.15C80.7297 120.151 80.7886 120.152 80.854 120.146C84.3126 120.033 88.1159 120.264 90.8867 120.419C92.4421 120.511 93.6314 120.581 94.6053 120.59C98.9206 121.659 103.546 120.919 107.102 118.488C110.061 116.466 112.266 113.506 113.579 110.069C113.803 109.654 114.021 109.232 114.213 108.802C116.018 104.793 117.047 98.1873 111.732 89.4811C109.192 85.3209 105.43 80.9719 100.239 76.1811C92.8552 69.3722 84.5319 63.5467 80.8516 61.0712C80.9562 61.0729 81.0608 61.0599 81.1654 61.0616C84.624 60.949 88.4274 61.1798 91.1982 61.335C93.4724 61.4675 94.9753 61.558 96.1458 61.4816C104.457 60.9414 111.501 56.4378 114.524 49.7103C116.33 45.7015 117.358 39.0957 112.044 30.3895C109.503 26.2292 105.741 21.8802 100.55 17.0894C92.23 9.42098 82.7135 2.9886 79.9971 1.2043L72.3623 16.0066C74.4339 17.3692 81.736 22.2825 88.6466 28.2907C98.0493 36.4686 100.124 40.9077 100.575 42.266C99.8318 43.0468 97.9236 44.1464 95.1772 44.322C94.726 44.3367 93.1511 44.245 91.8833 44.173C88.0147 43.9411 82.7216 43.6274 77.7971 44.0392C72.4475 44.4881 65.0207 45.8944 62.2379 52.971C61.6284 54.5176 61.3194 56.0984 61.3109 57.7062C61.2887 61.9202 63.305 66.3363 67.3534 70.9103C72.2725 76.4749 77.9819 80.907 83.5027 85.1892C87.2331 88.0839 90.7551 90.8211 93.9425 93.8099C95.1068 94.9008 98.6585 98.2331 99.5381 101.25C99.5895 101.42 99.6274 101.634 99.6524 101.854C98.6944 102.536 97.0434 103.258 94.8594 103.399C94.4082 103.414 92.8333 103.322 91.5655 103.25C87.6969 103.018 82.4038 102.704 77.4793 103.116C72.1297 103.565 64.7026 104.971 61.9198 112.048C61.3103 113.594 61.0013 115.175 60.9928 116.783C60.9706 120.997 62.9869 125.413 67.0353 129.987C71.9544 135.552 77.6638 139.984 83.1845 144.266C86.9149 147.161 90.437 149.898 93.6243 152.887C94.7887 153.978 98.3404 157.31 99.22 160.327C99.265 160.475 99.2968 160.659 99.3219 160.85C98.364 161.532 96.7192 162.247 94.5417 162.388C94.0906 162.402 92.5156 162.311 91.2479 162.239C87.3792 162.007 82.0861 161.693 77.1616 162.105C71.8121 162.554 64.3853 163.96 61.6025 171.037C60.9929 172.583 60.684 174.164 60.6755 175.772C60.6533 179.986 62.6696 184.402 66.718 188.976C71.6371 194.541 77.3465 198.973 82.8672 203.255C86.5976 206.15 90.1197 208.887 93.307 211.876C94.4714 212.966 98.023 216.299 98.9027 219.316C99.0567 219.855 99.112 220.509 99.1025 221.059C94.6232 221.346 85.3952 219.676 78.3589 217.682L74.7349 234.334C78.1094 235.292 95.3816 239.942 104.298 237.539L104.317 237.583Z" fill="#FFC18A"/>
<path d="M43.9672 237.583C47.3843 236.662 50.2411 234.183 52.0184 230.6C54.7406 225.108 54.3636 218.509 53.1117 214.171C51.1151 207.274 46.5064 202.316 42.7141 198.76C38.9869 195.27 35.0092 192.181 31.1552 189.188C26.8714 185.866 22.783 182.687 19.2781 179.179C19.5723 179.161 19.873 179.152 20.1934 179.142C23.652 179.03 27.4553 179.26 30.2261 179.416C31.5854 179.497 32.6636 179.558 33.5656 179.58C37.9912 180.79 42.7866 180.075 46.4409 177.572C49.485 175.493 51.7367 172.409 53.0302 168.847C53.215 168.505 53.3869 168.148 53.5522 167.791C55.3579 163.782 56.3862 157.176 51.0718 148.47C48.5313 144.31 44.7694 139.961 39.5782 135.17C32.2793 128.436 24.0602 122.671 20.3147 120.15C20.3801 120.151 20.4389 120.152 20.5043 120.146C23.963 120.033 27.7663 120.264 30.5371 120.419C32.0924 120.511 33.2818 120.581 34.2557 120.59C38.571 121.659 43.1965 120.919 46.7524 118.488C49.7112 116.466 51.9165 113.506 53.229 110.069C53.4534 109.654 53.6713 109.232 53.8632 108.802C55.6689 104.793 56.6972 98.1873 51.3828 89.4811C48.8423 85.3209 45.0804 80.9719 39.8891 76.1811C32.5056 69.3722 24.1823 63.5467 20.502 61.0712C20.6066 61.0729 20.7112 61.0599 20.8158 61.0616C24.2744 60.949 28.0778 61.1798 30.8486 61.335C33.1227 61.4675 34.6256 61.558 35.7962 61.4816C44.1074 60.9414 51.1518 56.4378 54.1747 49.7103C55.9804 45.7015 57.0087 39.0957 51.6943 30.3895C49.1538 26.2292 45.3918 21.8802 40.2006 17.0894C31.8804 9.42098 22.3639 2.9886 19.6474 1.2043L12.0127 16.0066C14.0843 17.3692 21.3864 22.2825 28.2969 28.2907C37.6997 36.4686 39.7745 40.9077 40.225 42.266C39.4822 43.0468 37.574 44.1464 34.8276 44.322C34.3764 44.3367 32.8015 44.245 31.5337 44.173C27.6651 43.9411 22.372 43.6274 17.4475 44.0392C12.0979 44.4881 4.67112 45.8944 1.88831 52.971C1.27876 54.5176 0.969809 56.0984 0.961333 57.7062C0.939119 61.9202 2.95542 66.3363 7.00381 70.9103C11.9229 76.4749 17.6323 80.907 23.1531 85.1892C26.8834 88.0839 30.4055 90.8211 33.5928 93.8099C34.7572 94.9008 38.3089 98.2331 39.1885 101.25C39.2399 101.42 39.2778 101.634 39.3028 101.854C38.3448 102.536 36.6938 103.258 34.5098 103.399C34.0586 103.414 32.4837 103.322 31.2159 103.25C27.3473 103.018 22.0542 102.704 17.1297 103.116C11.7801 103.565 4.353 104.971 1.57019 112.048C0.960644 113.594 0.651689 115.175 0.643213 116.783C0.620999 120.997 2.6373 125.413 6.68569 129.987C11.6048 135.552 17.3142 139.984 22.8349 144.266C26.5653 147.161 30.0874 149.898 33.2747 152.887C34.4391 153.978 37.9907 157.31 38.8704 160.327C38.9154 160.475 38.9472 160.659 38.9723 160.85C38.0144 161.532 36.3696 162.247 34.1921 162.388C33.741 162.402 32.166 162.311 30.8982 162.239C27.0296 162.007 21.7365 161.693 16.812 162.105C11.4625 162.554 4.03566 163.96 1.25285 171.037C0.643301 172.583 0.334346 174.164 0.325871 175.772C0.303657 179.986 2.31996 184.402 6.36835 188.976C11.2875 194.541 16.9969 198.973 22.5176 203.255C26.248 206.15 29.7701 208.887 32.9574 211.876C34.1217 212.966 37.6734 216.299 38.5531 219.316C38.7071 219.855 38.7624 220.509 38.7529 221.059C34.2736 221.346 25.0456 219.676 18.0093 217.682L14.3853 234.334C17.7598 235.292 35.032 239.942 43.9479 237.539L43.9672 237.583Z" fill="#FFC18A"/>
</svg>
