<svg width="480" height="482" viewBox="0 0 480 482" fill="none" xmlns="http://www.w3.org/2000/svg">
<rect x="1.18603" y="1.06055" width="478.126" height="480.376" fill="#2A0C01" stroke="black" stroke-width="1.125"/>
<rect x="70.3735" y="439.247" width="331.876" height="41.6251" fill="#A33C01"/>
<rect x="110.732" y="294.589" width="253.867" height="145.067" fill="#56160D"/>
<rect x="66.9985" y="248.723" width="334.934" height="45.8667" fill="#A33C01"/>
<rect x="117.132" y="220.99" width="232.534" height="27.7334" fill="#56160D"/>
<path d="M299.532 220.566L294.405 222.125C255.69 233.898 214.336 233.801 175.677 221.848L171.532 220.566C128.973 202.92 106.548 165.905 105.398 122.856H178.7H291.297H364.599C363.449 165.905 342.09 202.92 299.532 220.566Z" fill="#FFC18A"/>
<rect x="76.5984" y="110.057" width="318.934" height="12.8" fill="#A33C01"/>
<rect x="217.398" y="69.5229" width="34.1339" height="40.5341" fill="#56160D"/>
<rect x="217.749" y="58.998" width="218.25" height="10.125" fill="#FFC18A"/>
<path d="M400.864 17.373H436.065V51.507L431.265 59.5071H407.264L402.464 51.507L400.864 17.373Z" fill="#A33C01"/>
<rect x="411.531" y="69.5229" width="16.0003" height="6.40011" fill="#A33C01"/>
<rect x="162.998" y="324.456" width="144" height="85.3336" fill="#A33C01"/>
<circle cx="236.599" cy="367.123" r="14.9336" fill="#FFC18A"/>
</svg>
