<svg width="480" height="482" viewBox="0 0 480 482" fill="none" xmlns="http://www.w3.org/2000/svg">
<rect x="0.687499" y="0.562499" width="478.126" height="480.376" fill="#2A0C01" stroke="black" stroke-width="1.125"/>
<path d="M86.5469 230.898V441.82C86.5469 443.062 87.5542 444.07 88.7969 444.07H362.583C378.116 444.07 390.708 431.478 390.708 415.945V77.7468C390.708 74.2672 390.063 70.8178 388.804 67.5738L388.358 66.4251C386.838 62.5074 384.46 58.9801 381.397 56.1025L380.725 55.4704L375.4 50.467L365.569 43.0763C365.027 42.6688 364.427 42.3452 363.788 42.1167L358.96 40.3883C356.619 39.5504 354.178 39.0265 351.7 38.8304L330.142 37.1245H141.353C129.075 37.1245 117.095 40.9082 107.043 47.9606L103.176 50.6743C98.3638 54.0505 94.3758 58.4691 91.5088 63.6007C88.2551 69.4245 86.5469 75.9844 86.5469 82.6555V88.1051C86.5469 98.3251 89.8115 108.278 95.8647 116.512L100.646 122.264C104.09 126.406 108.197 129.95 112.799 132.75L119.199 136.645C122.656 138.749 126.624 139.862 130.671 139.862H140.586C142.558 139.862 144.372 140.94 145.314 142.671C146.692 145.203 145.831 148.371 143.36 149.857L132.351 156.478C131.544 156.963 130.775 157.508 130.051 158.108L120.926 165.664C117.534 168.472 114.359 171.531 111.427 174.816L104.517 182.557L99.7696 189.275C95.4184 195.433 92.0596 202.234 89.8156 209.432C87.6489 216.381 86.5469 223.619 86.5469 230.898Z" fill="#FFC18A"/>
<ellipse cx="39.3569" cy="55.1658" rx="39.3569" ry="55.1658" transform="matrix(0.714632 0.699501 -0.697824 0.71627 198.35 246.235)" fill="#2A0C01"/>
<path d="M217.786 285.239C215.916 287.386 213.833 289.296 211.736 291.222C211.064 291.684 205.055 301.243 198.386 303.262C189.716 305.885 178.91 312.525 170.612 323.115C164.643 330.858 159.689 335.433 158.309 341.45C161.296 338.156 164.246 335.355 167.527 332.909C169.564 331.514 171.729 330.214 173.992 329.041C178.24 326.98 181.882 326.008 186.145 323.932C188.816 322.568 191.803 320.424 194.526 318.551C199.446 314.879 203.859 310.122 207.91 305.041C213.32 297.871 216.572 290.857 217.786 285.239Z" fill="#FFC18A"/>
<path d="M290.209 227.103V442.487C290.209 443.73 291.216 444.737 292.459 444.737H388.458C389.701 444.737 390.708 443.73 390.708 442.487V76.3445C390.708 71.1903 389.365 66.1251 386.812 61.6481C386.043 60.3015 385.171 59.0173 384.202 57.8071L382.361 55.5079C380.394 53.0509 378.07 50.9026 375.466 49.1345L369.634 45.1746C362.549 40.364 354.183 37.792 345.62 37.792H342.533C339.165 37.792 335.809 38.19 332.535 38.9778L328.397 39.9731C323.39 41.1776 318.642 43.2769 314.381 46.1699L300.523 55.5799C300.304 55.7284 300.113 55.9141 299.959 56.1287L294.877 63.2047C290.571 69.1989 288.507 76.5145 289.044 83.8752L289.814 94.4291C290.075 98.0064 290.946 101.513 292.387 104.797L294.31 109.176C296.423 113.991 299.708 118.199 303.864 121.419L310.006 126.175C311.447 127.292 312.984 128.282 314.597 129.132L324.818 134.525L328.299 136.178C330.474 137.21 329.726 140.476 327.319 140.46L145.25 139.223C143.469 139.211 142.38 141.175 143.335 142.679L145.117 145.485C145.531 146.137 146.251 146.532 147.024 146.529L349.18 145.869C349.693 145.867 350.109 146.283 350.109 146.795C350.109 147.053 350.002 147.3 349.812 147.475L341.457 155.206L324.818 168.548L312.792 178.506C310.608 180.314 308.584 182.307 306.741 184.462L304.372 187.232C299.861 192.507 296.51 198.672 294.536 205.327L292.252 213.027C290.897 217.596 290.209 222.337 290.209 227.103Z" fill="#A33C01"/>
<path d="M368.078 81.156V133.535C368.078 135.924 370.015 137.861 372.405 137.861C374.794 137.861 376.731 135.924 376.731 133.535V79.6745C376.731 78.4545 376.447 77.2511 375.903 76.1593L374.069 72.4824L373.183 70.485C372.008 67.8364 370.357 65.4265 368.311 63.3754L366.747 61.8084L362.088 57.8056L358.946 55.2859C356.625 53.4244 353.973 52.0183 351.129 51.1413L347.567 50.0427C347.044 49.8814 346.506 49.775 345.961 49.7254L333.969 48.6327C332.765 48.5229 331.551 48.6922 330.422 49.1273L324.509 51.4071C323.83 51.6687 323.191 52.0232 322.609 52.4603L315.499 57.8056L312.977 60.104C309.808 62.9909 307.24 66.4739 305.418 70.3539L305.151 70.9227C303.63 74.1641 302.652 77.634 302.257 81.1931L301.955 83.9196C301.667 86.5147 301.692 89.1349 302.029 91.7241L302.394 94.5238C303.131 100.189 305.342 105.561 308.807 110.103L311.354 113.44C311.895 114.149 312.552 114.761 313.298 115.25L321.59 120.684C326.726 124.051 332.762 125.781 338.902 125.647L352.388 125.353C356.67 125.26 360.092 121.763 360.092 117.48V106.506V94.4976V85.9358C360.092 85.4184 360.041 84.9023 359.939 84.3949L359.398 81.6834C358.559 77.4764 356.199 73.726 352.77 71.1481L348.915 68.1426C347.532 67.064 345.828 66.4782 344.073 66.4782H333.758C332.689 66.4782 331.632 66.6958 330.65 67.1176L328.347 68.1066C327.771 68.3544 327.225 68.6703 326.724 69.0475L324.119 71.0053C322.84 71.9671 321.884 73.296 321.379 74.8149L319.687 79.9028C319.557 80.2923 319.458 80.6913 319.391 81.0962L318.386 87.1431C318.237 88.0366 318.244 88.9491 318.405 89.8403L319.223 94.3492C319.401 95.3288 319.763 96.2657 320.289 97.1104L322.153 100.1C322.595 100.808 323.147 101.442 323.787 101.977L328.615 106.009C330.031 107.192 331.818 107.84 333.663 107.84H335.955C339.875 107.84 343.198 104.957 343.751 101.076L343.965 99.5744C344.067 98.8617 344.07 98.1385 343.975 97.4249L343.196 91.5662C342.957 89.769 341.505 88.3767 339.7 88.2121C337.426 88.005 335.466 89.795 335.466 92.078V92.9083C335.466 95.6255 332.765 97.5158 330.212 96.5853C328.928 96.1174 327.981 95.014 327.714 93.6741L327.578 92.9947C327.512 92.6632 327.479 92.3259 327.479 91.9878V87.8263V83.0477C327.479 82.6759 327.506 82.3004 327.558 81.9323C327.923 79.3757 329.522 77.1291 331.831 75.9721L332.363 75.7051C333.096 75.3379 333.882 75.0873 334.692 74.9624L339.305 74.251C341.125 73.9703 342.986 74.3364 344.564 75.2854L346.645 76.5372C348.033 77.3717 349.129 78.6136 349.785 80.0937L350.763 82.2991C351.209 83.3042 351.439 84.3916 351.439 85.4912V110.009C351.439 114.596 347.533 118.213 342.959 117.86L334.93 117.241C334.401 117.2 333.878 117.106 333.368 116.96L329.867 115.958C326.555 115.009 323.54 113.231 321.106 110.792L318.161 107.84L314.637 103.719C314.325 103.354 313.984 103.013 313.62 102.699C311.01 100.457 309.509 97.1882 309.509 93.7477V92.4962V84.686C309.509 84.1128 309.571 83.5412 309.695 82.9815L310.84 77.8194L311.942 74.1375C312.534 72.1581 313.448 70.2896 314.647 68.6069C315.654 67.1946 316.851 65.928 318.204 64.843L319.492 63.8097L320.893 62.7566C323.473 60.8169 326.47 59.5056 329.646 58.9269C331.301 58.6252 332.987 58.5259 334.666 58.6311L346.852 59.3945C351.094 59.6603 355.093 61.4679 358.095 64.4769L362.088 69.1468L362.415 69.4737C365.24 72.3057 367.165 75.9097 367.948 79.8327C368.035 80.2685 368.078 80.7117 368.078 81.156Z" fill="#56160D"/>
</svg>
