<svg width="240" height="482" viewBox="0 0 240 482" fill="none" xmlns="http://www.w3.org/2000/svg">
<rect x="0.936767" y="0.562499" width="238.5" height="480.376" fill="#A33C01" stroke="black" stroke-width="1.125"/>
<path d="M90.5152 120.947H51.5021L72.9318 277.065H100.406L90.5152 120.947Z" fill="#FFC18A"/>
<path d="M150.958 120.947H100.406L110.296 277.065H141.617L150.958 120.947Z" fill="#FFC18A"/>
<path d="M159.75 120.947L148.211 277.065H180.63L189.971 182.322L235.5 107.838H198.763V120.947H159.75Z" fill="#FFC18A"/>
<path d="M72.9318 312.221L49.3042 452.25H91.0647L100.406 312.221H72.9318Z" fill="#FFC18A"/>
<path d="M108.648 312.221L97.6584 452.25L152.057 450.463L141.617 312.221H108.648Z" fill="#FFC18A"/>
<path d="M148.211 312.221L159.2 450.463H199.862L178.432 312.221H148.211Z" fill="#FFC18A"/>
<path d="M124.033 45.8677L50.4032 109.03H197.114L124.033 45.8677Z" fill="#FFC18A"/>
<rect x="81.7229" y="277.064" width="85.7192" height="34.5606" fill="#2A0C01"/>
<path d="M124.124 46.125L106.281 30.9375H140.437L124.124 46.125Z" fill="#2A0C01"/>
<path d="M51.0305 112.053H24.3103C13.0058 112.053 3.89038 121.309 4.0627 132.612L5.58201 232.265C5.76727 244.417 11.3202 255.863 20.7493 263.53C29.0954 269.939 39.012 273.985 49.4597 275.244L52.6243 275.625V250.283L48.0465 249.731C41.7577 248.974 35.9691 245.924 31.7886 241.165C29.0728 238.073 27.1379 234.376 26.1462 230.382L23.9368 221.485L19.6868 136.819H53.1555L51.0305 112.053Z" fill="#2A0C01"/>
</svg>
