<svg width="1438" height="241" viewBox="0 0 1438 241" fill="none" xmlns="http://www.w3.org/2000/svg">
<rect x="1198.81" y="0.562499" width="238.5" height="122.625" fill="#FFC18A" stroke="black" stroke-width="1.125"/>
<line x1="1436.75" y1="6.18798" x2="1199.37" y2="6.18798" stroke="#56160D" stroke-width="10.125"/>
<line x1="1436.75" y1="27.563" x2="1199.37" y2="27.563" stroke="#56160D" stroke-width="10.125"/>
<line x1="1436.75" y1="50.063" x2="1199.37" y2="50.063" stroke="#56160D" stroke-width="10.125"/>
<line x1="1436.75" y1="72.5625" x2="1199.37" y2="72.5625" stroke="#56160D" stroke-width="10.125"/>
<line x1="1436.75" y1="95.0625" x2="1199.37" y2="95.0625" stroke="#56160D" stroke-width="10.125"/>
<line x1="1436.75" y1="117.563" x2="1199.37" y2="117.563" stroke="#56160D" stroke-width="10.125"/>
<rect x="959.186" y="0.562499" width="238.5" height="122.625" fill="#56160D" stroke="black" stroke-width="1.125"/>
<path d="M963.141 117.722C963.141 117.722 958.975 4.03545 1078.61 2.24979C1078.61 126.055 963.141 117.722 963.141 117.722Z" fill="#A33C01"/>
<path d="M1194.08 117.757C1194.08 117.757 1198.25 4.0706 1078.61 2.28495C1078.61 126.09 1194.08 117.757 1194.08 117.757Z" fill="#A33C01"/>
<path d="M964.996 116.001L1077.5 3.50103" stroke="#56160D" stroke-width="4.49999" stroke-linecap="round"/>
<path d="M1192.23 116.001L1079.73 3.50103" stroke="#56160D" stroke-width="4.49999" stroke-linecap="round"/>
<rect x="719.562" y="0.562499" width="238.5" height="122.625" fill="#2A0C01" stroke="black" stroke-width="1.125"/>
<rect x="479.937" y="0.562499" width="238.5" height="239.625" fill="#2A0C01" stroke="black" stroke-width="1.125"/>
<rect x="239.187" y="0.562499" width="239.625" height="239.625" fill="#56160D" stroke="black" stroke-width="1.125"/>
<circle cx="359.55" cy="122.05" r="114.175" fill="#2A0C01"/>
<circle cx="360.101" cy="120.395" r="90.4574" fill="#A33C01"/>
<circle cx="361.205" cy="120.395" r="54.0542" fill="#2A0C01"/>
<path d="M393.342 150.484C385.182 159.076 373.944 164.075 362.098 164.381C350.253 164.686 338.771 160.274 330.179 152.115C321.587 143.955 316.588 132.717 316.282 120.871C315.977 109.026 320.389 97.5445 328.548 88.9523L360.945 119.718L393.342 150.484Z" fill="#56160D"/>
<path d="M328.775 89.1551C336.995 80.6203 348.268 75.7002 360.115 75.4771C371.962 75.2541 383.412 79.7465 391.947 87.9659C400.482 96.1854 405.402 107.459 405.625 119.306C405.848 131.153 401.356 142.603 393.137 151.138L360.956 120.147L328.775 89.1551Z" fill="#FFC18A"/>
<rect x="0.687499" y="0.562499" width="237.375" height="239.625" fill="#A33C01" stroke="black" stroke-width="1.125"/>
<path d="M91.4524 176.179L125.548 185.783C138.361 140.935 112.317 94.3112 67.4691 81.4976L33.4502 71.7778C20.6366 116.625 46.6048 163.365 91.4524 176.179Z" fill="#2A0C01"/>
<path d="M155.391 168.61L124.552 185.795C102.177 144.87 117.01 93.3469 157.935 70.9718L188.977 54.0002C211.352 94.9251 196.316 146.235 155.391 168.61Z" fill="#FFC18A"/>
</svg>
