<svg width="161" height="113" viewBox="0 0 161 113" fill="none" xmlns="http://www.w3.org/2000/svg">
<ellipse cx="80.7787" cy="56.3614" rx="56.3614" ry="79.8453" transform="rotate(90 80.7787 56.3614)" fill="#2A0C01"/>
<path d="M139.958 58.9139C135.844 59.1413 131.759 58.9139 127.644 58.6864C126.486 58.459 110.515 61.8487 101.675 57.0253C90.1836 50.7536 72.3755 46.3054 53.0199 48.376C38.9681 49.9918 29.2203 49.4824 21.6 54.0784C28.0315 53.851 33.9144 54.0784 39.7668 55C43.2721 55.6942 46.808 56.6158 50.3133 57.7648C56.7448 60.0629 61.4389 62.8277 67.901 65.1257C72.0159 66.5021 77.2587 67.4237 81.9528 68.3453C90.7314 69.7217 100.12 69.4943 109.477 68.5727C122.371 66.9569 132.917 63.2825 139.958 58.9139Z" fill="#FFC18A"/>
</svg>
