<svg width="43" height="224" viewBox="0 0 43 224" fill="none" xmlns="http://www.w3.org/2000/svg">
<path d="M42.6594 39.6435C42.6594 53.1643 33.2975 64.1251 21.7491 64.1251C10.2007 64.1251 0.838867 53.1643 0.838867 39.6435C0.838867 26.1227 21.7491 0 21.7491 0C21.7491 0 42.6594 26.1227 42.6594 39.6435Z" fill="#FFC18A"/>
<path d="M42.6594 119.519C42.6594 133.039 33.2975 144 21.7491 144C10.2007 144 0.838867 133.039 0.838867 119.519C0.838867 105.998 21.7491 79.875 21.7491 79.875C21.7491 79.875 42.6594 105.998 42.6594 119.519Z" fill="#FFC18A"/>
<path d="M42.6594 199.394C42.6594 212.914 33.2975 223.875 21.7491 223.875C10.2007 223.875 0.838867 212.914 0.838867 199.394C0.838867 185.873 21.7491 159.75 21.7491 159.75C21.7491 159.75 42.6594 185.873 42.6594 199.394Z" fill="#FFC18A"/>
</svg>
