<svg width="218" height="219" viewBox="0 0 218 219" fill="none" xmlns="http://www.w3.org/2000/svg">
<path d="M65.1954 32.5889C47.6719 40.8678 40.9936 47.5772 32.7587 65.1777C24.5185 47.5719 17.8405 40.8625 0.322266 32.5889C17.8457 24.31 24.5238 17.6005 32.7587 0C40.9989 17.6058 47.6772 24.3153 65.1954 32.5889Z" fill="#A33C01"/>
<path d="M141.265 32.5889C123.742 40.8678 117.063 47.5772 108.828 65.1777C100.588 47.5719 93.9101 40.8625 76.3918 32.5889C93.9153 24.31 100.593 17.6005 108.828 0C117.068 17.6058 123.747 24.3153 141.265 32.5889Z" fill="#A33C01"/>
<path d="M217.334 32.5889C199.811 40.8678 193.132 47.5772 184.897 65.1777C176.657 47.5719 169.979 40.8625 152.461 32.5889C169.984 24.31 176.662 17.6005 184.897 0C193.138 17.6058 199.816 24.3153 217.334 32.5889Z" fill="#A33C01"/>
<path d="M217.334 109.016C199.811 117.295 193.132 124.004 184.897 141.604C176.657 123.999 169.979 117.289 152.461 109.016C169.984 100.737 176.662 94.0273 184.897 76.4268C193.138 94.0325 199.816 100.742 217.334 109.016Z" fill="#A33C01"/>
<path d="M217.334 185.441C199.811 193.72 193.132 200.43 184.897 218.03C176.657 200.424 169.979 193.715 152.461 185.441C169.984 177.163 176.662 170.453 184.897 152.853C193.138 170.458 199.816 177.168 217.334 185.441Z" fill="#A33C01"/>
<path d="M141.265 109.016C123.742 117.295 117.063 124.004 108.828 141.604C100.588 123.999 93.9101 117.289 76.3918 109.016C93.9153 100.737 100.593 94.0273 108.828 76.4268C117.068 94.0325 123.747 100.742 141.265 109.016Z" fill="#A33C01"/>
<path d="M141.265 185.441C123.742 193.72 117.063 200.43 108.828 218.03C100.588 200.424 93.9101 193.715 76.3918 185.441C93.9153 177.163 100.593 170.453 108.828 152.853C117.068 170.458 123.747 177.168 141.265 185.441Z" fill="#A33C01"/>
<path d="M65.1954 109.016C47.6719 117.295 40.9936 124.004 32.7587 141.604C24.5185 123.999 17.8405 117.289 0.322266 109.016C17.8457 100.737 24.5238 94.0273 32.7587 76.4268C40.9989 94.0325 47.6772 100.742 65.1954 109.016Z" fill="#A33C01"/>
<path d="M65.1954 185.441C47.6719 193.72 40.9936 200.43 32.7587 218.03C24.5185 200.424 17.8405 193.715 0.322266 185.441C17.8457 177.163 24.5238 170.453 32.7587 152.853C40.9989 170.458 47.6772 177.168 65.1954 185.441Z" fill="#A33C01"/>
</svg>
