<svg width="1438" height="481" viewBox="0 0 1438 481" fill="none" xmlns="http://www.w3.org/2000/svg">
<rect x="959.186" y="0.562499" width="478.126" height="473.626" fill="#A33C01" stroke="black" stroke-width="1.125"/>
<ellipse cx="1198.25" cy="236.813" rx="229.476" ry="228.938" fill="#FFC18A"/>
<path d="M1358.57 237.355C1358.57 328.353 1284.62 402.151 1193.37 402.151C1102.11 402.151 1028.16 328.353 1028.16 237.355C1028.16 146.356 1102.11 72.5576 1193.37 72.5576C1284.62 72.5576 1358.57 146.356 1358.57 237.355Z" stroke="#A33C01" stroke-width="14.625"/>
<ellipse cx="1198.25" cy="236.813" rx="138.337" ry="138.012" fill="#2A0C01"/>
<path d="M1336.69 336.106L1334.78 334.05L1332.71 335.964L1294.97 371.033L1292.91 372.947L1294.83 375.003L1338.34 421.626C1347.83 431.792 1361.76 436.59 1375.52 434.429L1377.41 434.131C1387.61 432.529 1395.12 423.761 1395.12 413.461C1395.12 403.978 1391.52 394.846 1385.04 387.905L1336.69 336.106Z" fill="#FFC18A" stroke="#A33C01" stroke-width="5.62499"/>
<path d="M1225.87 146.581C1218.59 139.161 1206.78 139.161 1199.49 146.581L1196.08 150.075L1192.65 146.581C1185.36 139.161 1173.57 139.161 1166.28 146.581C1158.99 154.001 1158.99 166.013 1166.28 173.433L1196.08 203.798L1222.46 176.945L1225.89 173.451C1233.16 166.031 1233.16 154.001 1225.87 146.581Z" fill="#FFC18A"/>
<path d="M1218.56 245.608L1196.62 248.719C1192.73 219.772 1213.03 192.995 1242.05 189.116L1264.06 186.175C1267.94 215.122 1247.57 241.73 1218.56 245.608Z" fill="#FFC18A"/>
<path d="M1174.49 246.572L1196.62 248.72C1199.56 219.662 1178.31 193.807 1149.18 190.871L1127.09 188.644C1124.14 217.701 1145.37 243.636 1174.49 246.572Z" fill="#FFC18A"/>
<path d="M1228.33 321.441L1197.3 325.843C1191.8 284.888 1220.51 247.002 1261.57 241.515L1292.7 237.353C1298.2 278.308 1269.39 315.954 1228.33 321.441Z" fill="#FFC18A"/>
<path d="M1165.99 322.804L1197.3 325.843C1201.46 284.731 1171.38 248.151 1130.17 243.997L1098.92 240.846C1094.75 281.958 1124.78 318.65 1165.99 322.804Z" fill="#FFC18A"/>
<rect x="720.687" y="0.562499" width="237.375" height="236.25" fill="#2A0C01" stroke="black" stroke-width="1.125"/>
<rect x="719.562" y="242.437" width="238.5" height="231.75" fill="#A33C01" stroke="black" stroke-width="1.125"/>
<path d="M720.671 240.947C720.6 209.595 726.673 178.536 738.543 149.543C750.413 120.55 767.848 94.1915 789.853 71.9719C811.857 49.7523 838 32.1069 866.789 20.0432C895.577 7.97949 927.433 2.32117 958.624 2.24997L958.065 240.288L720.671 240.947Z" fill="#A33C01"/>
<path d="M957.634 480.885C926.443 480.854 895.565 474.694 866.761 462.758C837.957 450.821 811.791 433.341 789.759 411.316C767.726 389.291 750.257 363.153 738.35 334.393C726.443 305.633 720.092 274.116 720.124 243L957.634 243L957.634 480.885Z" fill="#2A0C01"/>
<path d="M898.476 223.977L945.211 240.011C965.848 177.952 932.616 110.536 870.703 89.8499L823.742 74.1597C803.105 136.219 836.563 203.291 898.476 223.977Z" fill="#2A0C01"/>
<path d="M895.757 249.224L944.75 242.908C952.554 307.854 906.512 367.222 841.718 375.045L792.572 380.978C784.768 316.031 830.964 257.046 895.757 249.224Z" fill="#A33C01"/>
<rect x="479.937" y="0.562499" width="238.5" height="239.625" fill="#2A0C01" stroke="black" stroke-width="1.125"/>
<rect x="249.874" y="11.25" width="218.25" height="218.25" fill="#2A0C01" stroke="#FFC18A" stroke-width="20.25"/>
<path d="M259.944 20.1094L259.872 219.412L458 21.375L259.944 20.1094Z" fill="#56160D"/>
<circle cx="359.039" cy="120.414" r="49.5394" fill="#56160D" stroke="#FFC18A" stroke-width="11.25"/>
<path d="M328.062 151.313C323.859 147.054 319.969 141.649 317.659 136.163C315.348 130.677 314.125 124.828 314.058 118.949C313.991 113.071 315.083 107.279 317.27 101.903C319.457 96.5275 322.698 91.6739 326.806 87.6195C330.915 83.5651 335.811 80.3892 341.215 78.2732C346.619 76.1572 352.425 75.1425 358.302 75.287C364.179 75.4316 370.012 76.7325 375.467 79.1156C380.922 81.4986 385.893 84.9172 390.095 89.176L358.81 120.05L328.062 151.313Z" fill="#2A0C01"/>
<rect x="0.687499" y="0.562499" width="238.5" height="239.625" fill="#2A0C01" stroke="black" stroke-width="1.125"/>
</svg>
