<svg width="959" height="242" viewBox="0 0 959 242" fill="none" xmlns="http://www.w3.org/2000/svg">
<rect x="481.311" y="0.937499" width="477.001" height="239.625" fill="#FFC18A" stroke="black" stroke-width="1.125"/>
<path d="M908.173 58.875L580.4 58.875C569.252 58.875 558.521 63.6494 550.978 71.8579C544.122 79.319 540.232 89.1748 540.232 99.3075L540.232 139.667C540.232 152.991 546.498 165.539 557.148 173.546C564.661 179.194 573.839 182.185 583.238 182.047L911.655 177.232C918.991 177.125 925.979 174.081 931.054 168.782L931.89 167.909C936.241 163.365 938.67 157.318 938.67 151.027C938.67 143.303 935.015 136.036 928.813 131.431L922.144 126.48C921.507 126.007 920.975 125.406 920.582 124.717C919.385 122.617 919.634 119.991 921.205 118.154L922.474 116.671L929.753 109.666C935.451 104.183 938.67 96.6174 938.67 88.7104C938.67 80.0913 934.847 71.9162 928.232 66.3908L927.724 65.9663C922.239 61.3848 915.319 58.875 908.173 58.875Z" fill="#56160D"/>
<path d="M622.749 127.402L919.547 131.469C923.216 131.519 925.091 127.087 922.499 124.489C921.014 123 920.899 120.628 922.234 119.003L922.611 118.545C925.15 115.455 922.962 110.803 918.963 110.787L622.897 109.616C611.076 109.57 602.044 99.0513 603.785 87.3588C605.483 75.9572 596.923 65.5991 585.406 65.1181L570.976 64.5155C556.754 63.9215 544.964 75.4165 545.196 89.6486L546.233 153.03C546.483 168.328 560.414 179.737 575.461 176.966L590.18 174.256C600.921 172.279 607.633 161.49 604.66 150.981C601.284 139.049 610.35 127.232 622.749 127.402Z" fill="#2A0C01"/>
<path d="M568.092 90.0459L568.092 95.9821C568.092 102.446 571.21 108.513 576.465 112.276L577.067 112.707C580.078 114.862 583.688 116.021 587.391 116.021V116.021C592.426 116.021 597.224 113.881 600.587 110.135L601.576 109.034C605.045 105.171 606.964 100.162 606.964 94.9693L606.964 92.2432C606.964 85.8344 604.478 79.6754 600.029 75.0623L595.475 70.3406C590.81 65.5037 584.38 62.7715 577.66 62.7715L571.606 62.7715C565.977 62.7715 560.515 64.6908 556.123 68.2127L552.454 71.1546C546.76 75.7212 543.371 82.5687 543.195 89.8662L541.796 147.838C541.626 154.866 544.453 161.635 549.572 166.454L555.76 172.281C560.352 176.605 566.421 179.012 572.727 179.012L577.42 179.012C584.28 179.012 590.833 176.165 595.514 171.149L600.308 166.013C604.585 161.43 606.964 155.395 606.964 149.126L606.964 145.48C606.964 140.004 604.438 134.833 600.119 131.466V131.466C596.997 129.032 593.152 127.711 589.194 127.711L587.622 127.711C583.759 127.711 579.983 128.856 576.771 131.002V131.002C571.348 134.626 568.092 140.718 568.092 147.24L568.092 153.686" stroke="#D5A478" stroke-width="6.74999" stroke-linecap="round"/>
<rect x="0.936767" y="0.937499" width="239.625" height="239.625" fill="#A33C01" stroke="black" stroke-width="1.125"/>
<path d="M63.0603 196.699L68.1914 205.125L162.005 206.813L171.613 186.563L173.944 182.114C176.904 176.468 179.32 170.553 181.16 164.449C182.705 159.325 183.838 154.085 184.548 148.781L186.871 131.438L189.132 110.625V83.625H42.1948L44.0672 133.477C44.3253 140.35 45.2754 147.179 46.9029 153.862L48.9765 162.375L53.1991 175.284C55.6505 182.778 58.9595 189.964 63.0603 196.699Z" fill="#56160D"/>
<path d="M223.04 206.812L16.198 203.999L21.8823 214.961C24.1075 219.252 26.9843 223.172 30.4103 226.582C32.2351 228.399 34.2068 230.061 36.3053 231.553L48.9762 240.562H188.566L204.955 229.312C212.013 224.135 217.742 217.359 221.67 209.538L223.04 206.812Z" fill="#56160D"/>
<path d="M174.221 174.445C173.942 176.288 175.198 178.101 177.043 178.289C185.634 179.166 194.218 176.721 201.281 171.311C209.256 165.201 214.639 155.81 216.243 145.204C217.848 134.597 215.544 123.643 209.838 114.753C204.785 106.88 197.43 101.195 189.095 98.6321C187.304 98.0815 185.591 99.2908 185.312 101.134L184.325 107.662C184.046 109.505 185.312 111.277 187.078 111.914C192.223 113.769 196.742 117.421 199.911 122.358C203.733 128.313 205.277 135.651 204.202 142.756C203.127 149.861 199.521 156.152 194.179 160.245C189.75 163.638 184.428 165.289 179.046 165.005C177.198 164.907 175.487 166.074 175.208 167.917L174.221 174.445Z" fill="#56160D"/>
<rect x="241.687" y="0.937499" width="238.5" height="239.625" fill="#2A0C01" stroke="black" stroke-width="1.125"/>
</svg>
