<svg width="480" height="482" viewBox="0 0 480 482" fill="none" xmlns="http://www.w3.org/2000/svg">
<rect x="0.562499" y="0.562499" width="478.126" height="480.376" fill="#2A0C01" stroke="black" stroke-width="1.125"/>
<path d="M474.751 242.132C474.751 372.129 369.481 474.751 239.625 474.751C109.769 474.751 4.5 372.129 4.5 242.132C4.5 112.134 109.769 6.75 239.625 6.75C369.481 6.75 474.751 112.134 474.751 242.132Z" fill="#FFC18A"/>
<path d="M103.5 429.749L129.937 479.249H326.813L351 429.749H103.5Z" fill="#2A0C01"/>
<path d="M173.25 216L102.375 430.312H351.563L281.25 216H173.25Z" fill="#A33C01"/>
<path d="M122.625 369.562L115.312 389.25H338.625L331.875 369.562H122.625Z" fill="#2A0C01"/>
<path d="M142.875 158.625L173.25 216.562H281.813L311.626 158.625H142.875Z" fill="#2A0C01"/>
<path d="M333.287 210.662L285.207 228.52L291.65 249.429L341.988 231.042L333.287 210.662Z" fill="#2A0C01"/>
<path d="M461.812 164.812L333 210.937L342 230.625L469.125 190.125L465.75 177.75L461.812 164.812Z" fill="#A33C01"/>
</svg>
