<svg width="1438" height="599" viewBox="0 0 1438 599" fill="none" xmlns="http://www.w3.org/2000/svg">
<rect x="0.687499" y="0.562499" width="717.749" height="356.624" fill="#FFC18A" stroke="black" stroke-width="1.125"/>
<rect x="960.311" y="1.68848" width="477.001" height="238.5" fill="#FFC18A" stroke="black" stroke-width="1.125"/>
<line x1="1436.75" y1="5.62597" x2="960.867" y2="5.62597" stroke="#56160D" stroke-width="8.99999"/>
<line x1="1436.75" y1="25.7392" x2="960.867" y2="25.7393" stroke="#56160D" stroke-width="10.125"/>
<line x1="1436.75" y1="46.4248" x2="960.867" y2="46.4248" stroke="#56160D" stroke-width="10.125"/>
<line x1="1436.75" y1="67.1113" x2="960.867" y2="67.1113" stroke="#56160D" stroke-width="10.125"/>
<line x1="1436.75" y1="87.7978" x2="960.867" y2="87.7978" stroke="#56160D" stroke-width="10.125"/>
<line x1="1436.75" y1="108.484" x2="960.867" y2="108.484" stroke="#56160D" stroke-width="10.125"/>
<line x1="1436.75" y1="129.171" x2="960.867" y2="129.171" stroke="#56160D" stroke-width="10.125"/>
<line x1="1436.75" y1="149.857" x2="960.867" y2="149.857" stroke="#56160D" stroke-width="10.125"/>
<line x1="1436.75" y1="170.544" x2="960.867" y2="170.544" stroke="#56160D" stroke-width="10.125"/>
<line x1="1436.75" y1="191.229" x2="960.867" y2="191.229" stroke="#56160D" stroke-width="10.125"/>
<line x1="1436.75" y1="213.036" x2="960.867" y2="213.036" stroke="#56160D" stroke-width="10.125"/>
<line x1="1436.75" y1="234.843" x2="960.867" y2="234.843" stroke="#56160D" stroke-width="10.125"/>
<rect x="479.937" y="358.312" width="238.5" height="239.625" fill="#A33C01" stroke="black" stroke-width="1.125"/>
<rect x="238.512" y="357.637" width="240.975" height="240.975" fill="#2A0C01" stroke="black" stroke-width="0.225"/>
<path d="M459.163 505.853C459.163 505.853 462.712 508.94 460.819 517.491C460.819 517.491 371.169 537.918 259.994 548.369C259.994 548.369 254.553 543.144 259.994 538.631C259.994 538.631 353.902 531.98 430.778 513.691C440.477 511.078 449.938 508.465 459.163 505.853Z" fill="#A33C01"/>
<path d="M457.035 436.97C463.895 448.847 459.164 505.853 459.164 505.853C450.175 508.466 440.477 511.078 430.542 513.454L429.832 510.366C438.584 508.228 436.456 476.4 436.219 463.098C436.219 459.773 435.273 457.16 434.09 455.26C443.315 447.897 450.648 436.495 457.035 436.97Z" fill="#FFC18A"/>
<path d="M346.362 425.698C338.005 423.367 330.998 421.717 326.475 421.658C330.52 417.122 333.076 413.913 334.624 411.83C335.409 410.774 335.935 410.008 336.265 409.505C336.43 409.254 336.547 409.068 336.622 408.945C336.659 408.883 336.686 408.837 336.704 408.807L336.715 408.788C336.869 408.709 337.113 408.641 337.454 408.591C337.812 408.538 338.266 408.506 338.809 408.493C339.896 408.467 341.336 408.521 343.079 408.648C346.566 408.902 351.258 409.447 356.761 410.226C367.765 411.785 381.999 414.278 396.278 417.247C410.558 420.216 424.88 423.659 436.059 427.116C441.649 428.845 446.45 430.577 450.067 432.253C451.875 433.091 453.384 433.915 454.547 434.715C455.622 435.455 456.392 436.17 456.832 436.854C455.267 436.854 453.655 437.512 451.99 438.598C450.251 439.732 448.441 441.342 446.547 443.184C445.441 444.26 444.306 445.416 443.138 446.605C440.332 449.462 437.34 452.508 434.113 455.096C432.073 452.157 428.699 450.506 424.457 449.037C422.891 448.495 421.208 447.977 419.426 447.43C416.315 446.474 412.904 445.426 409.294 443.991C398.79 439.806 381.354 435.148 365.272 430.852C358.527 429.05 352.02 427.312 346.362 425.698L346.362 425.698Z" fill="#FFC18A" stroke="#2A0C01" stroke-width="0.225"/>
<path d="M436.218 463.098C436.455 476.399 438.584 508.228 429.832 510.365C429.595 510.365 429.359 510.365 429.359 510.365C419.897 511.315 425.101 482.575 422.026 469.749C421.08 465.711 418.951 463.573 415.403 462.623C417.768 462.148 420.133 461.673 422.026 461.198C426.284 460.485 430.305 458.11 434.09 455.26C435.272 457.16 436.218 459.535 436.218 463.098Z" fill="#2A0C01"/>
<path d="M429.833 510.366L430.542 513.454C353.665 531.744 259.757 538.394 259.757 538.394C259.757 538.394 255.973 513.217 255.5 494.452C257.628 493.977 264.015 493.027 272.767 491.364C277.025 494.927 279.39 499.678 280.1 502.528C281.046 506.329 290.272 511.792 288.143 498.965C287.433 495.402 285.777 492.315 283.648 489.464C291.691 488.039 300.916 486.614 309.905 484.951C312.507 485.901 314.399 486.614 315.345 487.089C319.84 489.227 323.861 499.44 329.301 498.253C334.742 497.065 334.032 488.039 334.032 488.039C334.032 488.039 341.602 484.951 343.021 481.626C343.257 481.151 342.784 480.438 341.838 479.488C343.731 479.013 345.623 478.776 347.515 478.538C373.772 473.55 399.082 466.424 415.403 462.861C418.952 464.049 421.081 466.187 422.027 469.987C424.865 482.813 419.898 511.554 429.36 510.604C429.596 510.366 429.596 510.366 429.833 510.366Z" fill="#FFC18A"/>
<path d="M409.253 444.097C420.607 448.61 429.832 449.322 434.09 455.261C430.305 458.111 426.52 460.486 422.026 461.199C419.897 461.436 417.768 461.911 415.403 462.624C407.597 460.011 393.404 462.386 374.954 461.199C348.225 459.536 307.776 450.985 307.302 453.835C306.829 456.448 335.688 472.6 342.311 479.013C337.344 479.963 331.666 480.913 325.753 482.101C332.376 475.925 310.378 466.662 300.206 456.448C298.55 454.785 297.604 453.123 297.131 451.698C299.497 449.322 302.099 446.71 304.464 444.334C306.356 444.097 308.249 444.097 310.851 444.572C325.28 446.235 402.393 457.398 405.705 453.123C409.016 448.847 320.076 428.658 320.076 428.658C322.441 426.045 324.57 423.907 326.463 421.77C331.193 421.77 338.053 423.195 346.569 425.807C365.492 431.27 394.351 438.159 409.253 444.097Z" fill="#2A0C01"/>
<path d="M374.718 461.199C393.405 462.387 407.361 459.774 415.167 462.625C399.082 466.187 373.772 473.313 347.279 478.301C345.386 478.539 343.731 479.014 341.602 479.251C334.978 472.838 306.356 456.686 306.593 454.074C307.539 450.986 347.988 459.537 374.718 461.199Z" fill="#FFC18A"/>
<path d="M319.84 428.657C319.84 428.657 409.017 448.847 405.469 453.122C402.157 457.398 325.044 446.234 310.615 444.572C308.249 444.334 306.12 444.334 304.228 444.334C305.174 443.384 306.12 442.434 307.066 441.484C312.034 436.733 316.292 432.458 319.84 428.657Z" fill="#FFC18A"/>
<path d="M342.075 479.249C343.021 480.199 343.494 480.912 343.258 481.387C342.075 484.712 334.269 487.8 334.269 487.8C334.269 487.8 335.215 496.826 329.538 498.014C324.097 499.201 320.076 488.988 315.581 486.85C314.635 486.375 312.743 485.662 310.141 484.712C314.872 484 319.603 483.05 324.097 482.337C324.807 482.337 325.043 482.337 325.28 482.099C331.43 481.149 336.871 480.199 342.075 479.249Z" fill="#2A0C01"/>
<path d="M319.839 428.658C317.947 423.907 320.312 421.77 326.226 421.77C324.333 423.907 322.204 426.045 319.839 428.658Z" fill="#24120D"/>
<path d="M299.97 456.685C310.142 466.899 332.141 476.163 325.518 482.338C325.044 482.338 324.808 482.576 324.335 482.576C319.604 482.101 304.465 475.212 293.584 469.987C289.089 467.849 285.778 466.424 283.412 465.711C287.67 461.198 292.401 456.685 296.895 451.935C297.368 453.36 298.315 455.022 299.97 456.685Z" fill="#FFC18A"/>
<path d="M324.334 482.338C319.603 483.051 314.872 484.001 310.377 484.713C300.916 481.388 282.701 475.45 277.734 471.174C279.626 469.274 281.519 467.374 283.411 465.474C285.777 466.186 289.088 467.374 293.583 469.749C304.464 475.212 319.603 482.101 324.334 482.338Z" fill="#2A0C01"/>
<path d="M304.227 444.571C301.862 446.947 299.26 449.559 296.894 451.935C295.712 448.134 298.077 445.046 304.227 444.571Z" fill="#24120D"/>
<path d="M310.162 485.062L310.582 484.986L310.18 484.845C309.027 484.44 307.745 483.996 306.374 483.522C302.113 482.047 296.99 480.274 292.205 478.433C289.043 477.216 286.03 475.97 283.513 474.762C280.993 473.553 278.981 472.386 277.811 471.329L277.728 471.254L277.652 471.336C275.052 474.185 272.452 476.796 270.086 479.171L269.976 479.281L270.115 479.351C270.142 479.365 270.193 479.389 270.267 479.423C271.491 480.002 278.905 483.505 283.798 489.535L283.84 489.587L283.905 489.575C287.491 488.94 291.268 488.304 295.171 487.647C300.016 486.831 305.055 485.983 310.162 485.062Z" fill="#FFC18A" stroke="black" stroke-width="0.225"/>
<path d="M288.379 498.726C290.508 511.552 281.283 506.089 280.337 502.289C279.627 499.438 277.262 494.688 273.004 491.125C276.316 490.65 279.864 489.937 283.885 489.225C286.014 492.075 287.67 495.163 288.379 498.726Z" fill="#2A0C01"/>
<path d="M276.552 469.037C277.971 465.949 279.39 464.524 283.412 465.712C281.519 467.612 279.627 469.512 277.735 471.412C276.552 470.462 276.315 469.75 276.552 469.037Z" fill="#24120D"/>
<path d="M270.166 479.249C270.639 479.487 278.681 483.05 283.885 489.463C280.101 490.175 276.316 490.65 273.004 491.363C271.348 489.938 269.693 488.75 267.564 487.8C265.908 487.087 264.962 486.375 264.252 485.425C265.908 483.525 267.8 481.387 270.166 479.249Z" fill="#2A0C01"/>
<path d="M270.165 479.251C268.036 481.626 265.907 483.526 264.251 485.426C261.649 482.101 264.724 477.825 270.165 479.251C269.928 479.251 269.928 479.251 270.165 479.251Z" fill="#24120D"/>
<path d="M267.609 487.697L267.609 487.697L267.608 487.697C265.966 486.99 264.795 486.048 264.332 485.583L264.25 485.501L264.17 485.585C261.569 488.316 259.44 490.513 257.962 492.026C257.223 492.783 256.646 493.37 256.255 493.767C256.059 493.965 255.909 494.116 255.809 494.218L255.695 494.333L255.666 494.362L255.659 494.369L255.657 494.371L255.657 494.371L255.656 494.371L255.736 494.451L255.656 494.371L255.37 494.658L255.763 494.56C257.65 494.086 264.268 492.899 273.022 491.474L273.26 491.435L273.077 491.278C271.416 489.848 269.751 488.653 267.609 487.697Z" fill="#FFC18A" stroke="black" stroke-width="0.225"/>
<rect x="0.687499" y="358.312" width="237.375" height="239.625" fill="#FFC18A" stroke="black" stroke-width="1.125"/>
<path d="M227.404 479.386C227.192 462.26 218.074 472.422 210.793 473.132C203.937 473.772 197.858 471.64 192.203 475.619C186.761 479.457 190.436 486.99 196.656 485.924C199.554 485.426 202.311 484.644 205.068 483.863C206.481 483.436 207.824 483.01 209.238 482.655C209.874 482.513 210.581 482.37 211.288 482.228C209.804 482.513 212.277 482.228 212.631 482.228C212.772 482.228 212.843 482.228 212.914 482.228H212.984C213.055 482.442 213.267 482.655 213.196 482.37C213.974 485.142 213.196 489.69 212.419 493.314C210.44 502.552 199.978 507.882 196.656 516.694C193.617 524.582 190.233 525.276 182.034 527.55C172.986 530.108 168.385 536.023 158.984 536.663C148.099 537.373 137.385 536.876 126.57 536.663C104.588 536.236 82.9967 537.586 61.0141 536.165C52.6734 535.597 53.742 531.901 45.8961 529.343C44.5531 528.917 40.7985 529.343 39.0314 528.206C38.7487 527.993 32.6699 529.485 32.5285 529.343C32.3165 528.988 32.1044 528.632 31.963 528.277V528.206C31.8923 527.993 31.3976 526.145 31.3976 526.501C31.1855 524.582 31.3976 522.734 31.8217 520.887C33.5181 513.354 23.2689 511.151 20.6536 517.973C18.1797 524.44 17.8263 532.044 22.2794 537.729C26.4497 543.129 32.5285 545.901 39.0314 547.606C45.393 549.241 52.0372 549.596 58.5402 550.022C69.5668 550.733 80.5228 551.941 91.5495 552.936C113.179 554.855 135.161 555.636 156.932 554.571C167.252 554.073 177.572 552.936 187.679 551.017C197.151 549.241 205.775 544.693 211.429 536.663C217.084 528.632 219.841 518.542 222.88 509.303C226.061 499.852 227.545 489.761 227.404 479.386Z" fill="#A33C01"/>
<path d="M223.305 449.468C222.881 440.869 212.632 447.904 209.451 450.32C201.958 456.076 191.427 458.493 182.379 460.624C171.282 463.183 159.972 464.888 148.663 465.883C126.609 467.873 104.839 467.02 82.8562 464.959C70.6279 463.751 58.753 463.609 46.5954 465.741C38.5374 467.162 28.571 470.36 24.542 478.177C23.9766 479.314 23.9766 480.38 24.4007 481.304C23.5525 494.806 22.6336 502.125 24.542 516.054C26.3091 528.774 36.4169 534.743 69.7797 537.017C93.8122 538.652 119.47 539.291 143.574 538.51C153.469 538.154 163.506 537.87 173.19 535.383C181.036 533.322 188.458 529.485 194.819 524.51C209.027 513.353 218.286 496.085 221.679 478.532C223.588 468.939 223.8 459.132 223.305 449.468Z" fill="#2A0C01"/>
<path d="M219.488 415.641C210.935 406.901 200.474 407.185 188.882 407.824C184.358 408.038 179.976 408.18 175.664 409.601C170.645 411.307 170.221 418.981 175.805 420.332C181.036 421.611 186.267 420.971 191.638 420.9C197.152 420.829 202.736 420.829 208.179 421.682C211.501 422.179 215.176 422.748 217.579 425.235C219.064 426.798 216.095 434.544 215.53 436.747C212.985 446.483 210.935 455.721 204.856 463.964C202.312 467.375 199.484 470.928 196.021 473.345C192.345 475.903 188.104 477.182 183.793 478.248C162.022 483.791 139.474 483.649 117.208 484.288C94.1655 484.928 71.1933 483.862 48.1503 482.583C42.0008 482.227 36.4168 481.872 30.9742 478.745C27.5107 476.756 19.5941 470.431 21.6439 465.599C22.5628 463.467 22.4921 461.122 20.725 459.416C18.8165 457.64 14.6462 457.071 13.4446 459.558C10.1931 466.38 10.4052 473.771 15.9892 482.014C20.2302 488.268 35.71 490.258 45.3937 490.968C68.3659 492.532 87.4505 494.735 110.493 494.735C139.262 494.735 159.901 496.298 182.238 491.679C191.921 489.689 199.767 488.836 207.048 481.872C221.043 468.512 225.496 449.467 225.072 430.707C224.931 426.017 224.012 420.971 220.902 417.347C220.477 416.707 219.983 416.139 219.488 415.641Z" fill="#8B3402"/>
<path d="M220.831 416.495C216.307 408.322 206.341 405.409 195.385 404.84C164.284 403.064 141.099 402.566 114.098 401.714C101.517 401.358 89.0762 402.14 76.7065 402.851C56.4202 404.059 40.2336 418.911 27.6519 433.55C20.2301 442.148 12.7376 452.666 11.6067 464.249C10.3344 477.111 15.9891 482.299 71.2638 484.999C94.2361 486.137 140.322 486.421 163.223 485.213C172.412 484.715 181.884 483.649 190.649 480.736C200.686 477.396 208.673 474.127 212.702 464.32C217.367 452.808 222.881 441.438 223.305 428.646C223.517 423.672 222.598 419.693 220.831 416.495Z" fill="#A33C01"/>
<path d="M40.7995 454.443C39.6685 454.159 38.5374 454.301 37.4771 454.727C37.265 454.798 37.053 454.869 36.8409 455.011C34.7202 456.148 33.872 458.849 34.9323 460.981C36.7702 464.747 43.2029 463.468 44.1218 459.702C44.6874 457.285 43.1322 455.011 40.7995 454.443Z" fill="#2A0C01"/>
<path d="M57.4103 434.829C57.269 434.616 57.0569 434.403 56.9155 434.261C55.1483 432.484 51.9673 432.413 50.4828 434.687C49.7053 435.895 49.988 437.317 50.6242 438.525C51.1897 439.733 52.3914 440.23 53.6638 440.372C55.2897 440.586 57.0569 439.449 57.8345 438.027C58.4707 436.89 58.1172 435.753 57.4103 434.829Z" fill="#2A0C01"/>
<path d="M70.2033 418.769C70.1327 418.627 70.062 418.556 69.9913 418.414C69.2137 417.206 68.0827 416.353 66.8103 416.921C65.8206 417.348 64.831 417.774 64.6189 418.911C64.3362 420.119 64.9724 421.327 66.0327 421.967C68.2947 423.317 71.4051 421.185 70.2033 418.769Z" fill="#2A0C01"/>
<path d="M100.529 415.232C100.459 415.09 100.388 415.019 100.317 414.877C99.5396 413.669 98.4086 412.816 97.1362 413.384C96.1466 413.811 95.1569 414.237 94.9449 415.374C94.6621 416.582 95.2983 417.79 96.3586 418.43C98.6207 419.78 101.731 417.648 100.529 415.232Z" fill="#2A0C01"/>
<path d="M72.4661 454.158C72.254 454.087 72.0419 454.087 71.7592 454.087C71.123 453.945 70.4868 453.945 69.8506 454.087C68.2247 454.442 67.1644 455.722 66.5989 457.214C65.7506 459.701 67.7299 462.544 70.3454 462.544C72.1833 462.544 73.8091 461.265 74.7281 459.772C76.1419 457.498 74.9402 454.798 72.4661 454.158Z" fill="#2A0C01"/>
<path d="M114.241 456.361C113.534 454.94 112.049 454.301 110.565 454.158C110.07 454.087 109.505 454.158 109.01 454.372C108.868 454.372 108.656 454.443 108.515 454.514C106.818 455.011 105.405 456.361 105.051 458.067C104.556 460.128 105.758 462.118 107.596 463.042C109.151 463.894 110.918 463.894 112.544 463.184C114.948 461.976 115.372 458.636 114.241 456.361Z" fill="#2A0C01"/>
<path d="M150.643 456.29C149.724 455.366 148.098 455.082 146.755 455.082C144.846 455.082 143.22 455.366 142.584 457.498C141.736 460.128 143.927 462.97 146.613 462.899C149.087 462.828 151.349 460.625 151.349 458.138C151.42 457.285 151.067 456.717 150.643 456.29Z" fill="#2A0C01"/>
<path d="M188.104 457.499C185.559 452.098 175.804 457.712 179.834 462.118C180.965 463.326 182.802 463.469 184.287 463.398C185.842 463.326 187.327 462.758 188.175 461.408C188.952 460.2 188.67 458.707 188.104 457.499Z" fill="#2A0C01"/>
<path d="M193.123 433.338C191.851 433.054 190.508 433.054 189.659 433.48C187.609 434.475 187.468 437.033 188.811 438.597C190.649 440.728 194.961 439.591 195.951 437.104C196.728 435.114 195.102 433.764 193.123 433.338Z" fill="#2A0C01"/>
<path d="M198.99 418.129C198 416.992 195.667 416.921 194.254 418.2C193.617 418.769 193.476 419.693 193.617 420.474C193.759 421.185 194.254 421.611 194.749 422.038C195.173 422.393 195.738 422.464 196.304 422.464C196.869 422.535 197.364 422.322 197.859 422.109C198.354 421.896 198.778 421.398 198.99 420.901C199.697 419.622 199.555 418.698 198.99 418.129Z" fill="#2A0C01"/>
<path d="M157.428 433.763C157.216 433.621 156.933 433.408 156.65 433.337C155.166 432.697 152.409 432.91 151.278 434.189C150.642 434.9 150.076 435.753 150.076 436.748C150.147 437.885 150.995 438.951 152.126 439.164C152.904 439.306 153.611 439.235 154.388 439.022C155.025 438.88 155.661 438.595 156.226 438.311C158.418 437.387 159.054 435.042 157.428 433.763Z" fill="#2A0C01"/>
<path d="M163.576 416.496C162.94 415.714 161.809 415.145 160.89 415.572C159.83 415.501 158.769 415.714 158.204 416.78C157.144 418.77 159.264 420.475 161.102 420.475C162.516 420.475 164.071 419.48 164.142 417.917C164.142 417.419 163.93 416.922 163.576 416.496Z" fill="#2A0C01"/>
<path d="M123.287 434.546C122.722 431.845 118.268 431.348 116.148 433.195C114.663 434.475 114.663 436.678 116.006 438.028C118.056 440.16 122.439 439.165 123.217 436.251C123.429 435.612 123.429 435.043 123.287 434.546Z" fill="#2A0C01"/>
<path d="M88.8646 434.688C88.3698 433.835 87.5215 433.195 86.4612 432.84C85.6836 432.556 84.8353 432.627 84.0578 432.769C82.1492 433.124 81.1595 434.759 81.0888 436.535C81.0182 437.53 81.8664 438.454 82.7854 438.667C83.9164 438.951 85.1888 439.307 86.3198 439.094C87.3095 438.951 88.2991 438.596 88.8646 437.601C89.3594 436.606 89.2887 435.54 88.8646 434.688Z" fill="#2A0C01"/>
<path d="M129.437 415.358C129.225 415.074 128.942 414.861 128.66 414.719C127.67 414.221 126.398 414.576 125.408 414.861C123.711 415.429 123.004 416.566 123.782 418.201C125.125 421.114 128.66 420.617 129.861 417.987C130.144 417.206 129.932 416.14 129.437 415.358Z" fill="#2A0C01"/>
<rect x="960.311" y="241.714" width="238.5" height="238.098" fill="#A33C01" stroke="black" stroke-width="1.125"/>
<path d="M961.128 241.878C961.095 273.559 967.423 305.786 979.251 335.068C991.08 364.35 1008.43 390.964 1030.32 413.389C1052.21 435.815 1078.21 453.613 1106.83 465.768C1135.44 477.923 1167.26 479.19 1198.25 479.224L1198.25 242.301L961.128 241.878Z" fill="#56160D"/>
<path d="M1019.66 241.88C1025.29 292.966 1044.86 330.478 1078.75 366.774C1112.65 403.071 1149.61 424.826 1198.25 431.854L1198.25 384.341C1159.69 378.769 1138.14 361.71 1111.27 332.937C1084.4 304.165 1069.31 282.383 1064.84 241.886L1019.66 241.88Z" fill="#FFC18A"/>
<rect x="1199.75" y="241.714" width="237.557" height="238.098" fill="#2A0C01" stroke="black" stroke-width="1.125"/>
<path d="M1436.87 241.879C1436.91 273.559 1430.6 305.787 1418.82 335.069C1407.04 364.351 1389.75 390.964 1367.95 413.39C1346.15 435.815 1320.25 453.614 1291.75 465.769C1263.24 477.924 1231.18 479.19 1200.31 479.224L1200.31 242.301L1436.87 241.879Z" fill="#A33C01"/>
<path d="M1378.57 241.88C1372.96 292.966 1353.47 330.478 1319.71 366.774C1285.95 403.07 1248.76 424.743 1200.31 431.772L1200.31 384.341C1238.71 378.769 1260.55 361.71 1287.32 332.937C1314.08 304.164 1329.12 282.383 1333.57 241.886L1378.57 241.88Z" fill="#2A0C01"/>
<rect x="1198.81" y="479.812" width="238.5" height="118.125" fill="#56160D" stroke="black" stroke-width="1.125"/>
<path d="M1202.77 480.526C1202.77 480.526 1198.6 594.213 1318.24 595.998C1318.24 472.193 1202.77 480.526 1202.77 480.526Z" fill="#A33C01"/>
<path d="M1433.71 480.491C1433.71 480.491 1437.88 594.177 1318.24 595.963C1318.24 472.158 1433.71 480.491 1433.71 480.491Z" fill="#A33C01"/>
<path d="M1204.62 482.246L1317.12 594.747" stroke="#56160D" stroke-width="4.49999" stroke-linecap="round"/>
<path d="M1431.85 482.246L1319.35 594.747" stroke="#56160D" stroke-width="4.49999" stroke-linecap="round"/>
<rect x="719.562" y="478.687" width="238.5" height="119.25" fill="#56160D" stroke="black" stroke-width="1.125"/>
<rect width="63.0001" height="52.8751" transform="matrix(1 0 0 -1 811.249 597.374)" fill="#A33C01"/>
<path d="M864.092 597.369C864.109 596.405 864.141 595.462 864.141 594.46C864.141 579.001 862.151 567.571 858.164 560.172C854.177 552.773 843.753 549.068 838.333 549.068C832.465 549.068 821.589 552.876 817.717 560.497C813.839 568.118 811.903 579.326 811.903 594.13C811.903 595.246 811.936 596.297 811.958 597.369L756.178 597.369C756.156 596.183 756.123 595.007 756.123 593.805C756.123 561.9 763.818 537.644 779.208 521.036C794.597 504.428 814.193 496.124 837.999 496.124C848.183 496.124 857.929 497.852 867.231 501.303C876.529 504.758 885.279 510.154 893.472 517.499C901.664 524.844 908.194 535.119 913.067 548.336C917.94 561.548 920.374 576.921 920.374 594.466C920.374 595.452 920.341 596.405 920.33 597.375L864.092 597.375L864.092 597.369Z" fill="#2A0C01"/>
<rect x="959.186" y="480.937" width="238.5" height="117" fill="#2A0C01" stroke="black" stroke-width="1.125"/>
<rect x="719.562" y="0.562499" width="238.5" height="239.625" fill="#2A0C01" stroke="black" stroke-width="1.125"/>
<path d="M810.326 176.179L844.422 185.783C857.235 140.935 831.191 94.3107 786.343 81.4971L752.324 71.7773C739.511 116.625 765.479 163.365 810.326 176.179Z" fill="#FFC18A"/>
<path d="M874.265 168.61L843.426 185.794C821.05 144.869 835.884 93.3464 876.809 70.9713L907.851 53.9997C930.226 94.9246 915.189 146.235 874.265 168.61Z" fill="#56160D"/>
<rect x="719.562" y="241.312" width="239.625" height="239.625" fill="#FFC18A" stroke="black" stroke-width="1.125"/>
</svg>
