<svg width="198" height="65" viewBox="0 0 198 65" fill="none" xmlns="http://www.w3.org/2000/svg">
<path d="M42.3736 39.6435C42.3736 53.1643 33.0555 64.1251 21.5611 64.1251C10.0666 64.1251 0.748535 53.1643 0.748535 39.6435C0.748535 26.1227 21.5611 0 21.5611 0C21.5611 0 42.3736 26.1227 42.3736 39.6435Z" fill="#2A0C01"/>
<path d="M119.998 39.6435C119.998 53.1643 110.68 64.1251 99.1858 64.1251C87.6914 64.1251 78.3733 53.1643 78.3733 39.6435C78.3733 26.1227 99.1858 0 99.1858 0C99.1858 0 119.998 26.1227 119.998 39.6435Z" fill="#2A0C01"/>
<path d="M197.623 39.6435C197.623 53.1643 188.305 64.1251 176.811 64.1251C165.316 64.1251 155.998 53.1643 155.998 39.6435C155.998 26.1227 176.811 0 176.811 0C176.811 0 197.623 26.1227 197.623 39.6435Z" fill="#2A0C01"/>
</svg>
