<svg width="959" height="241" viewBox="0 0 959 241" fill="none" xmlns="http://www.w3.org/2000/svg">
<rect x="241.686" y="117.309" width="238.5" height="122.625" fill="#56160D" stroke="black" stroke-width="1.125"/>
<rect x="481.311" y="117.309" width="238.5" height="122.625" fill="#2A0C01" stroke="black" stroke-width="1.125"/>
<rect x="572.999" y="117.871" width="63.0001" height="52.8751" fill="#56160D"/>
<path d="M625.842 117.876C625.859 118.84 625.891 119.783 625.891 120.785C625.891 136.244 623.9 147.674 619.914 155.073C615.927 162.472 605.503 166.177 600.083 166.177C594.215 166.177 583.339 162.369 579.467 154.748C575.589 147.127 573.653 135.919 573.653 121.115C573.653 119.999 573.686 118.949 573.708 117.876L517.927 117.876C517.906 119.062 517.873 120.238 517.873 121.44C517.873 153.345 525.568 177.601 540.957 194.209C556.347 210.817 575.943 219.121 599.749 219.121C609.933 219.121 619.678 217.393 628.981 213.943C638.279 210.487 647.029 205.092 655.221 197.746C663.414 190.401 669.944 180.126 674.817 166.909C679.69 153.697 682.124 138.324 682.124 120.779C682.124 119.794 682.091 118.84 682.08 117.871L625.842 117.871L625.842 117.876Z" fill="#A33C01"/>
<rect x="720.936" y="117.309" width="237.375" height="122.625" fill="#A33C01" stroke="black" stroke-width="1.125"/>
<path d="M121.5 117.562H240.562V240.188H0.936767V0.562499H120.938V117V117.562H121.5Z" fill="#FFC18A" stroke="black" stroke-width="1.125"/>
<line x1="6.56176" y1="1.12549" x2="6.56177" y2="239.625" stroke="#56160D" stroke-width="10.125"/>
<line x1="28.0561" y1="1.12549" x2="28.0562" y2="239.625" stroke="#56160D" stroke-width="10.125"/>
<line x1="48.4309" y1="1.12549" x2="48.4309" y2="239.625" stroke="#56160D" stroke-width="10.125"/>
<line x1="68.8057" y1="1.12549" x2="68.8057" y2="239.625" stroke="#56160D" stroke-width="10.125"/>
<line x1="89.1804" y1="1.12549" x2="89.1804" y2="239.625" stroke="#56160D" stroke-width="10.125"/>
<line x1="109.555" y1="1.12549" x2="109.555" y2="239.625" stroke="#56160D" stroke-width="10.125"/>
<line x1="130.062" y1="118" x2="130.062" y2="240" stroke="#56160D" stroke-width="10.125"/>
<line x1="150.062" y1="118" x2="150.062" y2="240" stroke="#56160D" stroke-width="10.125"/>
<line x1="171.062" y1="118" x2="171.062" y2="240" stroke="#56160D" stroke-width="10.125"/>
<line x1="191.062" y1="118" x2="191.062" y2="240" stroke="#56160D" stroke-width="10.125"/>
<line x1="212.062" y1="118" x2="212.062" y2="240" stroke="#56160D" stroke-width="10.125"/>
<line x1="235.062" y1="118" x2="235.062" y2="240" stroke="#56160D" stroke-width="10.125"/>
</svg>
