<svg width="719" height="234" viewBox="0 0 719 234" fill="none" xmlns="http://www.w3.org/2000/svg">
<rect x="0.687499" y="0.562499" width="237.375" height="232.875" fill="#A33C01" stroke="black" stroke-width="1.125"/>
<circle cx="116" cy="120.375" r="108" fill="#FFC18A"/>
<circle cx="115.438" cy="119.812" r="86.0625" stroke="#A33C01" stroke-width="6.74999"/>
<circle cx="117.125" cy="120.375" r="59.6251" stroke="#A33C01" stroke-width="6.74999"/>
<path d="M62.321 106.473C64.4813 106.473 67.4072 105.955 69.4728 106.6C71.1441 107.123 73.003 107.012 74.6986 107.436C76.2774 107.831 77.8324 108.319 79.4004 108.767C81.9275 109.489 84.5002 110.398 86.9912 111.26C89.1186 111.996 91.3887 112.337 93.4207 113.299C94.4981 113.809 95.6961 114.358 96.8479 114.687C98.6815 115.211 99.8536 116.42 101.451 117.307C102.565 117.926 103.932 118.62 104.892 119.474C105.558 120.066 106.518 120.905 107.314 121.258C107.972 121.551 109.432 122.686 109.792 123.297C110.316 124.189 111.868 124.625 112.539 125.464C113.508 126.675 114.544 127.823 115.485 129.033C118.12 132.421 120.779 135.557 122.679 139.357C123.311 140.621 124.19 142.325 124.265 143.691C124.308 144.466 125.094 145.317 125.271 146.112C125.489 147.092 125.994 148.038 126.05 149.044C126.067 149.357 126.511 151.452 126.687 151.593C127.054 151.886 127.324 153.527 127.324 154.015C127.324 154.726 127.348 156.298 127.636 156.946C128.059 157.898 127.715 159.23 128.217 160.133C128.726 161.05 127.983 162.38 128.401 163.319C128.82 164.263 128.599 165.594 128.599 166.633C128.599 167.609 128.854 168.651 128.854 169.692C128.854 171.493 129.364 173.535 129.364 175.3" stroke="#A33C01" stroke-width="7.87499" stroke-linecap="round"/>
<path d="M54.6711 160.669C55.1458 160.669 55.7428 161.6 56.0783 161.935C56.6349 162.492 57.4332 163.039 57.9076 163.655C58.5296 164.464 59.6053 165.109 60.3622 165.805C61.5464 166.894 62.9733 167.67 64.2084 168.69C66.7689 170.803 69.4418 172.928 71.8695 175.194C73.0863 176.329 74.5465 177.484 75.9189 178.399" stroke="#A33C01" stroke-width="7.87499" stroke-linecap="round"/>
<rect x="239.187" y="0.562499" width="239.625" height="232.875" fill="#2A0C01" stroke="black" stroke-width="1.125"/>
<path d="M298.74 201.231L284.75 69.1875H431.879L419.194 200.89C417.416 219.35 401.905 233.438 383.36 233.438H334.539C316.125 233.438 300.68 219.543 298.74 201.231Z" fill="#FFC18A"/>
<path d="M310.413 192.245L293.75 84.374H423.125L410.559 190.964C408.422 209.09 393.059 222.749 374.807 222.749H345.991C328.23 222.749 313.124 209.797 310.413 192.245Z" fill="#FFC592"/>
<path d="M310.419 191.905L302.187 138.937H416.738L410.244 191.008C407.987 209.111 392.543 222.664 374.299 222.552L345.769 222.376C328.106 222.267 313.131 209.359 310.419 191.905Z" fill="#A33C01"/>
<path d="M310.228 191.593L305.562 159.75L414.125 158.625L410.742 190.368C408.782 208.753 393.213 222.664 374.724 222.551L345.627 222.373C327.845 222.264 312.806 209.187 310.228 191.593Z" fill="#56160D"/>
<path d="M310.727 191.887L309.5 183.374H411.478L410.702 190.595C408.737 208.884 393.302 222.749 374.908 222.749H361.212H346.358C328.461 222.749 313.281 209.602 310.727 191.887Z" fill="#2A0C01"/>
<path d="M278.089 57.5589L282.406 62.3432C284.732 64.9223 287.83 66.681 291.237 67.3573L314.389 71.9532C318.313 72.7322 322.312 73.0727 326.311 72.9684L363.813 71.9904H386.454C390.463 71.9904 394.458 71.5441 398.368 70.6598L414.151 67.0898C416.428 66.5746 418.746 66.2584 421.078 66.1448L436.86 65.3759C438.414 65.3002 439.762 64.278 440.254 62.8022C440.457 62.1943 440.501 61.5448 440.383 60.915L438.875 52.8752L437.792 49.1061C437.291 47.3641 437.222 45.5264 437.592 43.7519C438.214 40.7661 437.585 37.656 435.853 35.1456L432.414 30.1602C432.078 29.6736 431.78 29.1623 431.521 28.6306C429.566 24.6066 425.485 22.0521 421.012 22.0521H418.681C417.944 22.0521 417.207 21.9991 416.477 21.8935L410.166 20.9812C407.264 20.5617 404.323 20.4982 401.406 20.7921L392.511 21.6884C390.111 21.9302 387.692 21.9302 385.292 21.6884L379.072 21.0616C374.495 20.6005 370.209 18.6074 366.907 15.4054C364.867 13.4269 362.436 11.8962 359.771 10.9113L358.823 10.5613C356.028 9.52863 353.072 9 350.092 9H342.483C339.683 9 336.928 9.7121 334.479 11.0694C332.884 11.9536 331.446 13.0961 330.224 14.4506L325.895 19.2488C325.234 19.9812 324.64 20.7713 324.12 21.6096C321.104 26.4717 315.789 29.4293 310.068 29.4293H309.541H299.703C295.428 29.4293 291.24 30.6439 287.627 32.9318C284.209 35.0968 281.436 38.1409 279.597 41.7455L276.741 47.3468C276.089 48.6249 275.75 50.0391 275.75 51.4737C275.75 53.7217 276.583 55.8898 278.089 57.5589Z" fill="#FFC592"/>
<path d="M288.125 69.061C307.454 73.6387 404.102 75.4262 429.875 68.625" stroke="#FFC18A" stroke-width="8.99999" stroke-linecap="round"/>
<rect x="479.937" y="0.562499" width="238.5" height="232.875" fill="#56160D" stroke="black" stroke-width="1.125"/>
</svg>
