<svg width="218" height="218" viewBox="0 0 218 218" fill="none" xmlns="http://www.w3.org/2000/svg">
<path d="M141.356 32.5889C123.75 40.8678 117.04 47.5772 108.767 65.1777C100.488 47.5719 93.7784 40.8625 76.178 32.5889C93.7837 24.31 100.493 17.6005 108.767 0C117.046 17.6058 123.755 24.3153 141.356 32.5889Z" fill="#2A0C01"/>
<path d="M65.1779 32.5889C47.5722 40.8678 40.8626 47.5772 32.589 65.1777C24.3101 47.5719 17.6007 40.8625 0.000244141 32.5889C17.606 24.31 24.3154 17.6005 32.589 0C40.8678 17.6058 47.5775 24.3153 65.1779 32.5889Z" fill="#2A0C01"/>
<path d="M217.533 32.5889C199.928 40.8678 193.218 47.5772 184.944 65.1777C176.666 47.5719 169.956 40.8625 152.356 32.5889C169.961 24.31 176.671 17.6005 184.944 0C193.223 17.6058 199.933 24.3153 217.533 32.5889Z" fill="#2A0C01"/>
<path d="M217.533 108.767C199.927 117.046 193.218 123.755 184.944 141.355C176.665 123.75 169.956 117.04 152.355 108.767C169.961 100.488 176.671 93.7782 184.944 76.1777C193.223 93.7835 199.933 100.493 217.533 108.767Z" fill="#2A0C01"/>
<path d="M217.533 184.944C199.927 193.223 193.218 199.933 184.944 217.533C176.665 199.927 169.956 193.218 152.355 184.944C169.961 176.666 176.671 169.956 184.944 152.355C193.223 169.961 199.933 176.671 217.533 184.944Z" fill="#2A0C01"/>
<path d="M141.355 108.767C123.75 117.046 117.04 123.755 108.766 141.355C100.488 123.75 93.7782 117.04 76.1777 108.767C93.7835 100.488 100.493 93.7782 108.766 76.1777C117.045 93.7835 123.755 100.493 141.355 108.767Z" fill="#2A0C01"/>
<path d="M141.355 184.944C123.75 193.223 117.04 199.933 108.766 217.533C100.488 199.927 93.7782 193.218 76.1777 184.944C93.7835 176.666 100.493 169.956 108.766 152.355C117.045 169.961 123.755 176.671 141.355 184.944Z" fill="#2A0C01"/>
<path d="M65.1777 108.767C47.572 117.046 40.8623 123.755 32.5887 141.355C24.3099 123.75 17.6005 117.04 0 108.767C17.6057 100.488 24.3151 93.7782 32.5887 76.1777C40.8676 93.7835 47.5772 100.493 65.1777 108.767Z" fill="#2A0C01"/>
<path d="M65.1777 184.944C47.572 193.223 40.8623 199.933 32.5887 217.533C24.3099 199.927 17.6005 193.218 0 184.944C17.6057 176.666 24.3151 169.956 32.5887 152.355C40.8676 169.961 47.5772 176.671 65.1777 184.944Z" fill="#2A0C01"/>
</svg>
