<svg width="169" height="169" viewBox="0 0 169 169" fill="none" xmlns="http://www.w3.org/2000/svg">
<path d="M150.285 115.999L123.019 100.318C124.264 97.2432 125.13 93.97 125.619 90.5859H168.751C168.751 84.1939 163.551 79.0184 157.129 79.0184H125.597C125.13 75.6344 124.264 72.3606 122.997 69.2862L160.329 47.8321C157.129 42.3026 150.018 40.4007 144.463 43.6078L117.175 59.2889C115.086 56.6348 112.686 54.2462 110.019 52.1671L131.574 14.9875C126.019 11.8025 118.908 13.6824 115.708 19.2118L99.9528 46.3504C96.864 45.1118 93.5754 44.2488 90.1755 43.7622V0.831787C83.7535 0.831787 78.5537 6.00731 78.5537 12.3993V43.7844C75.1538 44.2488 71.8646 45.1118 68.7758 46.3725L47.221 9.21451C41.6655 12.3995 39.7547 19.4769 42.9768 25.0064L58.7316 52.1671C56.065 54.2462 53.6651 56.6348 51.5763 59.2889L14.2216 37.8348C11.0217 43.3642 12.9109 50.4422 18.4663 53.6272L45.7323 69.3084C44.4879 72.3827 43.6209 75.6565 43.132 79.0405H0C0 85.4326 5.19982 90.6081 11.6219 90.6081H43.1542C43.6209 93.9921 44.4879 97.2653 45.7545 100.34L8.42208 121.794C11.622 127.323 18.7327 129.226 24.2881 126.019L51.5763 110.337C53.6651 112.991 56.065 115.38 58.7316 117.459L37.1767 154.639C42.7321 157.824 49.8434 155.944 53.0433 150.415L68.7981 123.276C71.8869 124.515 75.176 125.377 78.5759 125.864V168.794C84.998 168.794 90.1978 163.619 90.1978 157.227V125.864C93.5977 125.399 96.8863 124.537 99.9751 123.276L121.53 160.434C127.085 157.249 128.997 150.171 125.775 144.642L110.019 117.481C112.686 115.402 115.086 113.013 117.175 110.359L154.529 131.813C157.729 126.284 155.84 119.206 150.285 116.021V115.999Z" fill="#FFC18A"/>
<path d="M127.688 84.8131C127.688 108.587 108.319 127.9 84.3753 127.9C60.4319 127.9 41.0625 108.587 41.0625 84.8131C41.0625 61.0392 60.4319 41.7263 84.3753 41.7263C108.319 41.7263 127.688 61.0392 127.688 84.8131Z" stroke="#A33C01" stroke-width="10.125"/>
</svg>
