<svg width="1437" height="874" viewBox="0 0 1437 874" fill="none" xmlns="http://www.w3.org/2000/svg">
<rect x="0.562499" y="1.05664" width="1435.5" height="871.874" fill="#FFC18A" stroke="black" stroke-width="1.125"/>
<path d="M0 474.604V715.993L170.085 814.43L698.461 681.68L993.626 519.118L990.616 517.624C955.151 500.031 916.659 489.357 877.199 486.172L741.775 475.243L569.936 451.618H386.888C371.781 451.618 356.694 452.717 341.746 454.905L236.902 470.255C214.256 473.57 191.314 474.381 168.491 472.672L14.508 461.142C6.67695 460.556 0 466.751 0 474.604Z" fill="#2A0C01"/>
<path d="M256.187 739.274L0 715.43V873.493H1435.5V526.431V497.284C1435.5 486.837 1427.95 477.92 1417.64 476.201L1351.76 465.206C1340.2 463.276 1328.49 462.306 1316.76 462.306H1222.75L1090.25 478.957C1065.38 482.081 1041.27 489.576 1019.02 501.095L828.801 599.555L634.675 677.23C620.738 682.806 606.25 686.891 591.452 689.416L311.655 737.159C293.338 740.285 274.69 740.996 256.187 739.274Z" fill="#A33C01"/>
</svg>
