<svg width="204" height="209" viewBox="0 0 204 209" fill="none" xmlns="http://www.w3.org/2000/svg">
<circle cx="101.25" cy="104.625" r="101.25" fill="#FFC18A"/>
<path d="M72.0676 28.2742C75.0711 25.4802 79.1822 24.2034 83.2401 24.8044L101.092 27.448C102.293 27.6258 103.512 27.6409 104.717 27.4927L122.62 25.2916C126.699 24.7902 130.784 26.1738 133.719 29.0507L146.565 41.6447C147.435 42.4976 148.416 43.2288 149.482 43.8184L165.222 52.5228C168.827 54.5165 171.324 58.0471 172.004 62.1103L174.964 79.8165C175.165 81.0201 175.529 82.191 176.045 83.2969L183.636 99.5725C185.378 103.306 185.319 107.63 183.478 111.315L175.436 127.403C174.892 128.493 174.497 129.652 174.263 130.847L170.81 148.503C170.021 152.536 167.438 155.99 163.793 157.887L147.791 166.213C146.715 166.774 145.718 167.477 144.829 168.303L131.615 180.594C128.611 183.387 124.5 184.664 120.442 184.062L102.597 181.418C101.396 181.24 100.176 181.225 98.97 181.373L81.0616 183.575C76.9827 184.077 72.8974 182.693 69.9628 179.816L57.1169 167.223C56.247 166.37 55.2655 165.639 54.1994 165.049L38.4596 156.344C34.8547 154.351 32.3573 150.82 31.6778 146.757L28.7156 129.044C28.5143 127.841 28.1507 126.67 27.6348 125.564L20.0456 109.295C18.304 105.562 18.3624 101.238 20.2042 97.5526L28.2452 81.464C28.7899 80.3742 29.1846 79.2157 29.4184 78.0201L32.8717 60.3652C33.6606 56.332 36.2437 52.8778 39.8894 50.9809L55.8957 42.6524C56.9732 42.0918 57.97 41.3883 58.8594 40.5611L72.0676 28.2742Z" fill="#2A0C01"/>
<circle cx="101.25" cy="104.625" r="39.3752" fill="#FFC18A"/>
<circle cx="101.25" cy="104.625" r="25.8755" fill="#A33C01"/>
<circle cx="84.9376" cy="52.3126" r="6.18761" fill="#A33C01"/>
<circle cx="133.313" cy="59.0626" r="6.18761" fill="#A33C01"/>
<circle cx="159.187" cy="104.063" r="6.18761" fill="#A33C01"/>
<circle cx="140.063" cy="145.688" r="6.18761" fill="#A33C01"/>
<circle cx="87.1876" cy="163.688" r="6.18761" fill="#A33C01"/>
<circle cx="51.1879" cy="133.313" r="6.18761" fill="#A33C01"/>
<circle cx="45.5626" cy="86.0626" r="6.18761" fill="#A33C01"/>
</svg>
