<svg width="150" height="144" viewBox="0 0 150 144" fill="none" xmlns="http://www.w3.org/2000/svg">
<path d="M133.569 98.8497L109.489 85.458C110.588 82.8325 111.353 80.0373 111.785 77.1474H149.879C149.879 71.6888 145.286 67.2691 139.614 67.2691H111.765C111.353 64.3792 110.588 61.5835 109.469 58.9581L142.441 40.6369C139.614 35.9149 133.334 34.2907 128.428 37.0295L104.327 50.4207C102.482 48.1542 100.362 46.1143 98.007 44.3389L117.044 12.5886C112.138 9.8687 105.858 11.474 103.031 16.196L89.1162 39.3715C86.3882 38.3138 83.4837 37.5769 80.4809 37.1613V0.5C74.8089 0.5 70.2164 4.91974 70.2164 10.3784V37.1803C67.2136 37.5769 64.3086 38.3138 61.5805 39.3905L42.5432 7.65861C37.6366 10.3785 35.9489 16.4224 38.7947 21.1444L52.7094 44.3389C50.3543 46.1143 48.2347 48.1542 46.3898 50.4207L13.398 32.0995C10.5718 36.8215 12.2404 42.8659 17.1469 45.5858L41.2284 58.977C40.1293 61.6024 39.3635 64.3981 38.9318 67.288H0.837402C0.837402 72.7466 5.4299 77.1664 11.1019 77.1664H38.9514C39.3636 80.0562 40.1293 82.8514 41.248 85.4769L8.27583 103.798C11.102 108.52 17.3822 110.145 22.2888 107.406L46.3898 94.0143C48.2347 96.2808 50.3543 98.3207 52.7094 100.096L33.6721 131.847C38.5786 134.567 44.8593 132.961 47.6855 128.239L61.6002 105.064C64.3282 106.122 67.2332 106.858 70.236 107.274V143.935C75.908 143.935 80.5005 139.515 80.5005 134.057V107.274C83.5033 106.877 86.4078 106.141 89.1359 105.064L108.173 136.795C113.08 134.075 114.768 128.031 111.922 123.309L98.007 100.115C100.362 98.3396 102.482 96.2997 104.327 94.0332L137.318 112.354C140.145 107.632 138.476 101.588 133.569 98.8686V98.8497Z" fill="#A33C01"/>
</svg>
