<svg width="269" height="248" viewBox="0 0 269 248" fill="none" xmlns="http://www.w3.org/2000/svg">
<rect x="69.1768" y="172.078" width="151.055" height="51.96" rx="11.8505" transform="rotate(-54.6945 69.1768 172.078)" fill="#FFC18A"/>
<path d="M170.03 14.4839L156.315 54.3554L192.575 78.4892L205.251 67.6853L216.38 56.1635C216.486 56.0531 216.574 55.9255 216.638 55.7862L218.683 51.3523C219.159 50.3189 218.239 49.1896 217.131 49.448L212.752 50.4689C212.67 50.4881 212.589 50.5149 212.512 50.5489L209.708 51.7824C209.016 52.0865 208.21 51.7726 207.905 51.0814L206.729 48.4077C206.6 48.1135 206.578 47.7832 206.668 47.4747L208.449 41.3637C208.742 40.3553 207.837 39.4059 206.816 39.6518L199.628 41.3828C198.741 41.5964 197.897 40.8976 197.942 39.9861L198.14 35.9739C198.184 35.0703 197.355 34.3734 196.472 34.5729L191.757 35.639C190.898 35.8332 190.082 35.1765 190.088 34.2957L190.115 30.5119C190.121 29.6274 189.299 28.9698 188.437 29.1706L184.006 30.2037C183.366 30.3531 182.709 30.0249 182.444 29.4226L179.943 23.7363C179.897 23.6308 179.837 23.5316 179.766 23.441L172.398 14.0828C171.728 13.2322 170.382 13.4602 170.03 14.4839Z" fill="#FFC18A"/>
<path d="M98.8705 233.083L110.352 196.07L75.628 169.767L63.6953 179.995L52.5661 191.517C52.4595 191.627 52.3722 191.755 52.3079 191.894L50.2629 196.328C49.7864 197.361 50.7068 198.491 51.8151 198.232L56.1939 197.211C56.2763 197.192 56.3566 197.165 56.434 197.131L59.2382 195.898C59.9294 195.594 60.7363 195.908 61.0404 196.599L62.2165 199.272C62.3459 199.567 62.3675 199.897 62.2776 200.206L60.4972 206.317C60.2035 207.325 61.109 208.274 62.1301 208.028L69.318 206.297C70.2052 206.084 71.0487 206.783 71.0038 207.694L70.8061 211.706C70.7616 212.61 71.591 213.307 72.4734 213.107L77.1886 212.041C78.0477 211.847 78.8637 212.504 78.8575 213.384L78.831 217.168C78.8248 218.053 79.6473 218.71 80.5088 218.51L84.9395 217.476C85.5803 217.327 86.2367 217.655 86.5016 218.258L89.0029 223.944C89.0493 224.049 89.1089 224.149 89.1802 224.239L96.4902 233.524C97.1716 234.389 98.5442 234.135 98.8705 233.083Z" fill="#FFC18A"/>
<path d="M116.156 171.176C114.522 173.391 112.548 175 110.233 176.003L108.148 173.187C109.162 172.722 110.142 172.129 111.088 171.407C112.04 170.676 112.839 169.872 113.487 168.995C114.282 167.917 114.653 166.932 114.601 166.041C114.539 165.145 114.074 164.376 113.205 163.734C112.052 162.884 110.686 163.064 109.109 164.275C108.995 164.359 108.683 164.599 108.171 164.996C107.65 165.386 107.16 165.754 106.699 166.098C106.237 166.428 105.897 166.661 105.68 166.798C102.992 168.622 100.461 168.659 98.0873 166.908C96.4241 165.681 95.5758 164.145 95.5425 162.301C95.5153 160.449 96.223 158.544 97.6657 156.589C99.2995 154.374 101.164 152.8 103.258 151.867L104.982 154.726C103.039 155.822 101.549 157.072 100.513 158.476C99.767 159.487 99.3825 160.385 99.3597 161.168C99.3346 161.937 99.7235 162.643 100.526 163.287C101.546 164.039 102.583 164.023 103.639 163.24C103.862 163.095 104.389 162.722 105.219 162.121C106.049 161.521 106.588 161.131 106.836 160.953C108.627 159.68 110.197 158.986 111.546 158.871C112.902 158.748 114.311 159.226 115.773 160.305C117.52 161.594 118.409 163.205 118.441 165.138C118.465 167.066 117.703 169.079 116.156 171.176ZM129.041 153.735C127.265 156.142 125.321 157.527 123.207 157.891C121.085 158.249 118.933 157.623 116.751 156.014L104.992 147.339L107.507 143.929L118.978 152.391C120.508 153.519 121.852 154.033 123.01 153.932C124.175 153.823 125.281 153.059 126.329 151.638C127.359 150.242 127.754 148.972 127.514 147.827C127.266 146.676 126.377 145.537 124.848 144.408L113.389 135.956L115.895 132.558L127.68 141.251C129.844 142.848 131.06 144.726 131.326 146.884C131.584 149.036 130.823 151.32 129.041 153.735ZM143.754 133.789C141.688 136.589 139.229 138.156 136.376 138.491C133.528 138.816 130.638 137.897 127.704 135.733C125.84 134.359 124.473 132.782 123.603 131.005C122.725 129.221 122.416 127.322 122.676 125.307C122.937 123.292 123.785 121.311 125.222 119.364C126.868 117.132 128.76 115.573 130.899 114.686L132.617 117.657C130.676 118.574 129.142 119.797 128.013 121.327C126.645 123.182 126.171 125.084 126.591 127.034C127.012 128.983 128.258 130.722 130.331 132.251C132.387 133.768 134.361 134.494 136.253 134.432C138.145 134.369 139.763 133.426 141.107 131.604C141.97 130.434 142.569 129.237 142.904 128.013L138.642 124.869L135.802 128.718L133.151 126.723L138.329 119.702L147.193 126.24C146.822 127.722 146.374 129.056 145.848 130.243C145.327 131.42 144.629 132.603 143.754 133.789ZM149.89 124.92L136.495 104.605L139.223 100.907L162.513 107.807L159.942 111.293L153.411 109.282L148.667 115.713L152.507 121.372L149.89 124.92ZM146.763 112.993L150.24 108.279C144.308 106.226 141.247 105.162 141.058 105.086L146.763 112.993ZM164.177 105.551L145.761 91.9662L150.782 85.1587C151.467 84.231 152.1 83.4595 152.683 82.8442C153.272 82.2205 153.905 81.6868 154.581 81.2431C155.254 80.7849 155.918 80.5065 156.571 80.4078C157.231 80.3008 157.946 80.3637 158.716 80.5964C159.485 80.8147 160.282 81.229 161.11 81.8393C163.55 83.6396 164.338 85.9307 163.473 88.7128C164.316 88.6375 165.674 88.7742 167.546 89.1229L175.229 90.5699L172.491 94.2808L166.108 92.8826C163.788 92.4233 162.399 92.1726 161.939 92.1306C161.826 92.2665 161.474 92.7356 160.882 93.538L158.758 96.3653L166.656 102.191L164.177 105.551ZM159.091 90.8227C160.052 89.5189 160.513 88.4133 160.473 87.5059C160.424 86.5923 159.885 85.7563 158.857 84.998C157.955 84.3321 157.077 84.1304 156.226 84.3926C155.374 84.6549 154.511 85.3794 153.635 86.5662L150.759 90.4652L156.313 94.562C156.405 94.4366 156.869 93.8171 157.703 92.7033C158.529 91.5833 158.992 90.9565 159.091 90.8227Z" fill="#2A0C01"/>
</svg>
