<svg width="248" height="214" viewBox="0 0 248 214" fill="none" xmlns="http://www.w3.org/2000/svg">
<rect x="49.9502" y="139.737" width="151.055" height="51.96" rx="11.8505" transform="rotate(-42.0853 49.9502 139.737)" fill="#FFC18A"/>
<path d="M182.775 7.95888L160.687 43.8748L190.803 75.3421L205.532 67.5657L218.908 58.7513C219.036 58.6669 219.149 58.5614 219.242 58.4395L222.205 54.5589C222.896 53.6545 222.244 52.3515 221.106 52.3617L216.61 52.4021C216.526 52.4029 216.441 52.4115 216.359 52.4278L213.353 53.0194C212.612 53.1652 211.893 52.6828 211.747 51.9418L211.183 49.0759C211.121 48.7606 211.172 48.4335 211.327 48.152L214.398 42.5771C214.905 41.6572 214.229 40.533 213.179 40.5501L205.786 40.6702C204.874 40.685 204.203 39.8189 204.446 38.9392L205.515 35.0668C205.756 34.1948 205.098 33.3336 204.194 33.3357L199.359 33.3467C198.479 33.3487 197.826 32.5297 198.024 31.6715L198.876 27.9848C199.075 27.1229 198.416 26.3017 197.531 26.3096L192.982 26.3505C192.324 26.3564 191.755 25.8929 191.628 25.2473L190.428 19.1521C190.406 19.039 190.37 18.9292 190.32 18.8252L185.172 8.08426C184.705 7.10802 183.342 7.03676 182.775 7.95888Z" fill="#FFC18A"/>
<path d="M65.6108 205.752L84.8957 172.138L56.7508 138.889L42.8731 146.265L29.4971 155.08C29.3689 155.164 29.2559 155.27 29.1628 155.392L26.1992 159.272C25.5085 160.177 26.1603 161.48 27.2982 161.469L31.7943 161.429C31.8789 161.428 31.9631 161.42 32.0461 161.403L35.0519 160.812C35.7928 160.666 36.5117 161.148 36.6575 161.889L37.2216 164.755C37.2837 165.071 37.2327 165.398 37.0776 165.679L34.0062 171.254C33.4993 172.174 34.1758 173.298 35.226 173.281L42.6184 173.161C43.5308 173.146 44.2014 174.012 43.9586 174.892L42.8898 178.764C42.6491 179.636 43.3064 180.498 44.211 180.495L49.0453 180.484C49.9261 180.482 50.579 181.301 50.3807 182.16L49.5288 185.846C49.3296 186.708 49.9888 187.529 50.8733 187.522L55.4227 187.481C56.0807 187.475 56.6496 187.938 56.7767 188.584L57.9763 194.679C57.9986 194.792 58.035 194.902 58.0849 195.006L63.1917 205.662C63.6677 206.656 65.0627 206.707 65.6108 205.752Z" fill="#FFC18A"/>
<path d="M95.9931 149.111C93.9152 150.916 91.6375 152.055 89.16 152.529L87.7399 149.326C88.8311 149.093 89.9169 148.728 90.9974 148.23C92.0857 147.725 93.0415 147.115 93.8648 146.4C94.8763 145.521 95.4535 144.641 95.5964 143.761C95.7326 142.872 95.4465 142.02 94.7382 141.205C93.7984 140.122 92.4266 140 90.6229 140.838C90.4937 140.895 90.136 141.061 89.5498 141.337C88.9567 141.604 88.3979 141.855 87.8734 142.091C87.3499 142.312 86.9673 142.465 86.7256 142.551C83.7042 143.745 81.2265 143.228 79.2923 141.001C77.937 139.441 77.4444 137.757 77.8145 135.95C78.1924 134.136 79.2988 132.433 81.1336 130.839C83.2115 129.034 85.3743 127.905 87.6221 127.452L88.6804 130.619C86.5442 131.264 84.8175 132.158 83.5002 133.302C82.5514 134.126 81.9804 134.918 81.7871 135.678C81.5948 136.422 81.8201 137.196 82.463 138C83.2938 138.957 84.3097 139.168 85.5104 138.634C85.7599 138.541 86.3553 138.292 87.2967 137.887C88.2381 137.482 88.8492 137.22 89.13 137.1C91.1556 136.248 92.8392 135.914 94.181 136.097C95.5305 136.273 96.8013 137.047 97.9931 138.419C99.4165 140.058 99.9327 141.824 99.5418 143.718C99.1441 145.604 97.9612 147.402 95.9931 149.111ZM112.375 134.903C110.117 136.865 107.917 137.792 105.774 137.686C103.625 137.571 101.662 136.491 99.8845 134.444L90.3022 123.412L93.5014 120.633L102.849 131.395C104.095 132.83 105.294 133.625 106.447 133.78C107.607 133.927 108.853 133.422 110.186 132.265C111.496 131.127 112.159 129.974 112.175 128.804C112.184 127.627 111.565 126.321 110.319 124.886L100.982 114.136L104.169 111.368L113.772 122.424C115.536 124.454 116.312 126.552 116.101 128.716C115.883 130.873 114.641 132.935 112.375 134.903ZM131.087 118.651C128.46 120.932 125.718 121.924 122.861 121.628C120.011 121.324 117.391 119.796 115 117.044C113.481 115.296 112.492 113.459 112.031 111.535C111.563 109.602 111.676 107.681 112.37 105.772C113.064 103.862 114.324 102.114 116.151 100.527C118.245 98.7091 120.432 97.6004 122.713 97.2013L123.741 100.476C121.647 100.947 119.882 101.806 118.447 103.052C116.706 104.564 115.828 106.317 115.813 108.311C115.798 110.305 116.635 112.274 118.324 114.219C119.999 116.148 121.767 117.288 123.627 117.64C125.487 117.992 127.272 117.425 128.981 115.94C130.079 114.987 130.925 113.95 131.519 112.828L128.046 108.829L124.435 111.965L122.282 109.44L128.869 103.719L136.091 112.035C135.406 113.4 134.677 114.604 133.905 115.646C133.14 116.682 132.201 117.684 131.087 118.651ZM139.011 111.335L130.375 88.5861L133.844 85.5725L155.066 97.3905L151.796 100.23L145.861 96.8424L139.828 102.083L142.34 108.444L139.011 111.335ZM138.564 99.0125L142.986 95.1714C137.645 91.873 134.89 90.1663 134.722 90.0514L138.564 99.0125ZM157.182 95.5521L142.176 78.2743L148.562 72.7272C149.433 71.9713 150.219 71.3567 150.923 70.8834C151.634 70.4034 152.367 70.0206 153.124 69.7352C153.881 69.4351 154.589 69.3082 155.249 69.3546C155.916 69.3942 156.6 69.6116 157.301 70.0069C158.003 70.3876 158.691 70.9661 159.365 71.7424C161.354 74.0319 161.623 76.4398 160.171 78.966C161.01 79.0765 162.305 79.5062 164.056 80.2552L171.238 83.3444L167.756 86.3682L161.832 83.6104C159.669 82.6558 158.367 82.1078 157.928 81.9665C157.788 82.0744 157.342 82.4553 156.589 83.1091L153.899 85.4045L160.335 92.8143L157.182 95.5521ZM155.434 80.0683C156.657 79.0058 157.348 78.0274 157.506 77.1331C157.658 76.2309 157.315 75.2975 156.478 74.3331C155.742 73.4863 154.93 73.0979 154.042 73.1679C153.153 73.2379 152.152 73.7565 151.039 74.7235L147.381 77.9006L151.907 83.111C152.024 83.0088 152.612 82.5054 153.669 81.6006C154.72 80.688 155.308 80.1772 155.434 80.0683Z" fill="#2A0C01"/>
</svg>
