<svg width="217" height="177" viewBox="0 0 217 177" fill="none" xmlns="http://www.w3.org/2000/svg">
<rect x="29.1707" y="106.314" width="151.055" height="51.96" rx="11.8505" transform="rotate(-30.9506 29.1707 106.314)" fill="#FFC18A"/>
<path d="M184.943 2.6667L156.335 33.641L179.808 70.332L195.761 65.5462L210.587 59.4808C210.729 59.4227 210.861 59.3411 210.976 59.2394L214.633 56.0042C215.485 55.2503 215.097 53.8459 213.979 53.6362L209.559 52.8075C209.476 52.792 209.392 52.7841 209.307 52.7841H206.244C205.489 52.7841 204.877 52.1719 204.877 51.4168V48.4958C204.877 48.1745 204.99 47.8634 205.196 47.6172L209.287 42.7403C209.962 41.9356 209.515 40.702 208.481 40.5159L201.205 39.2061C200.307 39.0445 199.816 38.0651 200.224 37.2489L202.021 33.6559C202.425 32.8467 201.947 31.8748 201.059 31.7021L196.313 30.7794C195.449 30.6113 194.966 29.6816 195.326 28.8779L196.874 25.425C197.236 24.6179 196.748 23.6848 195.879 23.5217L191.407 22.6833C190.76 22.562 190.291 21.9974 190.291 21.3394V15.1273C190.291 15.012 190.277 14.8972 190.248 14.7856L187.272 3.25277C187.001 2.20456 185.678 1.87145 184.943 2.6667Z" fill="#FFC18A"/>
<path d="M31.7882 174.11L57.2014 144.853L36.0072 106.794L20.9662 111.352L6.13979 117.418C5.99774 117.476 5.86649 117.557 5.75154 117.659L2.09437 120.894C1.24205 121.648 1.6299 123.053 2.74836 123.262L7.16766 124.091C7.25075 124.106 7.33511 124.114 7.41965 124.114H10.4831C11.2383 124.114 11.8504 124.727 11.8504 125.482V128.403C11.8504 128.724 11.7373 129.035 11.5308 129.281L7.44048 134.158C6.76555 134.963 7.21223 136.196 8.24591 136.383L15.5223 137.692C16.4204 137.854 16.9112 138.833 16.5031 139.65L14.7066 143.243C14.302 144.052 14.7806 145.024 15.6686 145.196L20.414 146.119C21.2786 146.287 21.761 147.217 21.4007 148.021L19.8529 151.473C19.4911 152.281 19.9792 153.214 20.8486 153.377L25.3203 154.215C25.967 154.336 26.4357 154.901 26.4357 155.559V161.771C26.4357 161.886 26.4503 162.001 26.4791 162.113L29.4319 173.555C29.7071 174.621 31.0659 174.942 31.7882 174.11Z" fill="#FFC18A"/>
<path d="M72.5365 124.403C70.1492 125.773 67.6944 126.451 65.1721 126.437L64.3973 123.02C65.5128 123.003 66.6488 122.854 67.8051 122.574C68.9704 122.288 70.0261 121.874 70.972 121.332C72.1341 120.665 72.8703 119.914 73.1806 119.077C73.4858 118.231 73.3697 117.34 72.8322 116.403C72.119 115.16 70.7967 114.775 68.8652 115.249C68.7274 115.28 68.3443 115.374 67.7159 115.531C67.0824 115.679 66.4855 115.818 65.9254 115.947C65.3691 116.063 64.9641 116.14 64.7104 116.177C61.5153 116.765 59.184 115.78 57.7163 113.221C56.6878 111.428 56.5297 109.681 57.2417 107.98C57.9628 106.273 59.3774 104.815 61.4854 103.605C63.8727 102.236 66.2128 101.546 68.5058 101.536L68.9326 104.847C66.7122 105.067 64.8452 105.611 63.3317 106.48C62.2417 107.105 61.5285 107.771 61.1922 108.479C60.8597 109.173 60.9313 109.976 61.4069 110.888C62.0374 111.987 62.9932 112.391 64.2745 112.099C64.5372 112.056 65.1695 111.927 66.1714 111.711C67.1732 111.496 67.8235 111.356 68.1223 111.293C70.2741 110.848 71.9906 110.845 73.2718 111.284C74.5621 111.717 75.6594 112.722 76.5638 114.298C77.6439 116.181 77.8093 118.014 77.06 119.797C76.3055 121.571 74.7977 123.106 72.5365 124.403ZM91.3538 113.627C88.7593 115.115 86.4214 115.6 84.3401 115.082C82.2536 114.555 80.536 113.115 79.1871 110.764L71.9158 98.0889L75.5913 95.9803L82.6844 108.345C83.6301 109.993 84.6533 111.005 85.7541 111.379C86.8639 111.748 88.1845 111.493 89.7159 110.615C91.2204 109.752 92.0934 108.748 92.3349 107.604C92.5713 106.451 92.2166 105.05 91.2709 103.401L84.1856 91.0501L87.8476 88.9493L95.1344 101.652C96.473 103.985 96.8296 106.193 96.2045 108.276C95.5742 110.349 93.9573 112.133 91.3538 113.627ZM112.852 101.293C109.835 103.025 106.952 103.469 104.206 102.626C101.468 101.778 99.1924 99.7726 97.3785 96.6105C96.226 94.6016 95.6095 92.6085 95.5288 90.6313C95.443 88.645 95.9249 86.7821 96.9744 85.0426C98.024 83.303 99.5982 81.8312 101.697 80.627C104.103 79.2472 106.463 78.5817 108.778 78.6306L109.154 82.0424C107.008 82.1001 105.111 82.6019 103.462 83.5476C101.463 84.6949 100.263 86.2453 99.8627 88.1989C99.4628 90.1525 99.9037 92.2464 101.185 94.4805C102.457 96.6967 103.971 98.1569 105.728 98.8611C107.485 99.5654 109.345 99.3542 111.309 98.2276C112.57 97.504 113.601 96.6495 114.4 95.664L111.765 91.0696L107.616 93.4494L105.992 90.5557L113.559 86.2145L119.04 95.7682C118.104 96.9756 117.157 98.0161 116.197 98.8898C115.247 99.7584 114.132 100.56 112.852 101.293ZM122.04 95.6456L117.959 71.6572L121.946 69.3704L140.485 85.0642L136.729 87.2192L131.56 82.7489L124.628 86.7256L125.864 93.4518L122.04 95.6456ZM123.981 83.4689L129.062 80.5541C124.458 76.2864 122.085 74.0798 121.942 73.9345L123.981 83.4689ZM142.917 83.6691L131.53 63.8185L138.867 59.6092C139.867 59.0356 140.758 58.5845 141.539 58.256C142.329 57.9223 143.123 57.6884 143.92 57.5544C144.721 57.4062 145.441 57.4185 146.079 57.5913C146.726 57.759 147.355 58.1044 147.967 58.6277C148.582 59.1368 149.145 59.8373 149.657 60.7291C151.166 63.3597 150.965 65.7741 149.053 67.9724C149.855 68.2429 151.042 68.9146 152.615 69.9876L159.065 74.4055L155.065 76.7001L149.786 72.8502C147.847 71.4957 146.676 70.7067 146.273 70.4833C146.114 70.5621 145.603 70.8496 144.738 71.3457L141.655 73.0784L146.539 81.5916L142.917 83.6691ZM144.191 68.139C145.597 67.3328 146.464 66.5063 146.792 65.6594C147.115 64.8035 146.959 63.8215 146.323 62.7134C145.765 61.7405 145.043 61.2026 144.158 61.0997C143.273 60.9969 142.191 61.3124 140.912 62.0462L136.709 64.4571L140.143 70.4434C140.278 70.3658 140.952 69.9853 142.164 69.3018C143.372 68.6093 144.047 68.2217 144.191 68.139Z" fill="#2A0C01"/>
</svg>
